M48
;DRILL file {KiCad (5.0.1)-rc2} date 3/21/2019 1:05:18 AM
;FORMAT={-:-/ absolute / inch / decimal}
FMAT,2
INCH,TZ
T1C0.0118
T2C0.0157
T3C0.0276
T4C0.0394
%
G90
G05
M72
T1
X6.2009Y-4.8402
X6.2178Y-4.8589
X6.2362Y-4.6933
X6.2594Y-4.7
X6.2808Y-4.6896
X6.3086Y-4.829
X6.32Y-4.97
X6.3363Y-4.8233
X6.3681Y-5.0303
X6.4Y-3.45
X6.42Y-3.56
X6.4571Y-4.7157
X6.46Y-4.77
X6.4602Y-4.8768
X6.4616Y-4.8159
X6.48Y-4.15
X6.5129Y-5.0835
X6.5167Y-4.2234
X6.5167Y-4.9783
X6.6407Y-5.2175
X6.6457Y-5.1354
X6.6469Y-5.2492
X6.6476Y-5.187
X6.71Y-5.47
X6.7823Y-5.1335
X6.82Y-5.14
X6.8356Y-5.2513
X6.8386Y-5.1821
X6.8571Y-5.2114
X6.92Y-5.47
X7.13Y-5.47
T2
X6.2Y-4.45
X6.21Y-4.91
X6.24Y-5.45
X6.28Y-4.41
X6.31Y-5.4
X6.32Y-5.18
X6.32Y-5.26
X6.33Y-5.02
X6.41Y-4.26
X6.41Y-4.3781
X6.48Y-4.92
X6.505Y-3.82
X6.69Y-5.2806
X6.69Y-5.32
X6.74Y-5.14
X6.74Y-5.3
X7.15Y-5.22
X7.21Y-5.29
X7.29Y-5.09
X7.29Y-5.27
T4
X6.2705Y-3.9591
X6.2705Y-4.0591
X6.2705Y-4.1591
X7.2937Y-5.1768
X7.2937Y-5.3736
T3
X6.2612Y-3.4978G85X6.2809Y-3.4978
G05
X6.2612Y-3.7813G85X6.2809Y-3.7813
G05
X6.3813Y-3.498G85X6.3813Y-3.5177
G05
X6.3813Y-3.7579G85X6.3813Y-3.7776
G05
T0
M30
