G04 #@! TF.GenerationSoftware,KiCad,Pcbnew,(5.0.1)-rc2*
G04 #@! TF.CreationDate,2019-03-21T01:05:14-07:00*
G04 #@! TF.ProjectId,littlebeepboop,6C6974746C6562656570626F6F702E6B,rev?*
G04 #@! TF.SameCoordinates,Original*
G04 #@! TF.FileFunction,Legend,Bot*
G04 #@! TF.FilePolarity,Positive*
%FSLAX46Y46*%
G04 Gerber Fmt 4.6, Leading zero omitted, Abs format (unit mm)*
G04 Created by KiCad (PCBNEW (5.0.1)-rc2) date 3/21/2019 1:05:14 AM*
%MOMM*%
%LPD*%
G01*
G04 APERTURE LIST*
%ADD10C,0.100000*%
%ADD11C,0.120000*%
%ADD12C,0.150000*%
%ADD13C,0.127000*%
G04 APERTURE END LIST*
D10*
X166012380Y-138739190D02*
X166250476Y-138739190D01*
X166250476Y-138239190D01*
X165845714Y-138739190D02*
X165845714Y-138405857D01*
X165845714Y-138239190D02*
X165869523Y-138263000D01*
X165845714Y-138286809D01*
X165821904Y-138263000D01*
X165845714Y-138239190D01*
X165845714Y-138286809D01*
X165679047Y-138405857D02*
X165488571Y-138405857D01*
X165607619Y-138239190D02*
X165607619Y-138667761D01*
X165583809Y-138715380D01*
X165536190Y-138739190D01*
X165488571Y-138739190D01*
X165393333Y-138405857D02*
X165202857Y-138405857D01*
X165321904Y-138239190D02*
X165321904Y-138667761D01*
X165298095Y-138715380D01*
X165250476Y-138739190D01*
X165202857Y-138739190D01*
X164964761Y-138739190D02*
X165012380Y-138715380D01*
X165036190Y-138667761D01*
X165036190Y-138239190D01*
X164583809Y-138715380D02*
X164631428Y-138739190D01*
X164726666Y-138739190D01*
X164774285Y-138715380D01*
X164798095Y-138667761D01*
X164798095Y-138477285D01*
X164774285Y-138429666D01*
X164726666Y-138405857D01*
X164631428Y-138405857D01*
X164583809Y-138429666D01*
X164560000Y-138477285D01*
X164560000Y-138524904D01*
X164798095Y-138572523D01*
X163798095Y-138477285D02*
X163726666Y-138501095D01*
X163702857Y-138524904D01*
X163679047Y-138572523D01*
X163679047Y-138643952D01*
X163702857Y-138691571D01*
X163726666Y-138715380D01*
X163774285Y-138739190D01*
X163964761Y-138739190D01*
X163964761Y-138239190D01*
X163798095Y-138239190D01*
X163750476Y-138263000D01*
X163726666Y-138286809D01*
X163702857Y-138334428D01*
X163702857Y-138382047D01*
X163726666Y-138429666D01*
X163750476Y-138453476D01*
X163798095Y-138477285D01*
X163964761Y-138477285D01*
X163274285Y-138715380D02*
X163321904Y-138739190D01*
X163417142Y-138739190D01*
X163464761Y-138715380D01*
X163488571Y-138667761D01*
X163488571Y-138477285D01*
X163464761Y-138429666D01*
X163417142Y-138405857D01*
X163321904Y-138405857D01*
X163274285Y-138429666D01*
X163250476Y-138477285D01*
X163250476Y-138524904D01*
X163488571Y-138572523D01*
X162845714Y-138715380D02*
X162893333Y-138739190D01*
X162988571Y-138739190D01*
X163036190Y-138715380D01*
X163060000Y-138667761D01*
X163060000Y-138477285D01*
X163036190Y-138429666D01*
X162988571Y-138405857D01*
X162893333Y-138405857D01*
X162845714Y-138429666D01*
X162821904Y-138477285D01*
X162821904Y-138524904D01*
X163060000Y-138572523D01*
X162607619Y-138405857D02*
X162607619Y-138905857D01*
X162607619Y-138429666D02*
X162560000Y-138405857D01*
X162464761Y-138405857D01*
X162417142Y-138429666D01*
X162393333Y-138453476D01*
X162369523Y-138501095D01*
X162369523Y-138643952D01*
X162393333Y-138691571D01*
X162417142Y-138715380D01*
X162464761Y-138739190D01*
X162560000Y-138739190D01*
X162607619Y-138715380D01*
X161607619Y-138477285D02*
X161536190Y-138501095D01*
X161512380Y-138524904D01*
X161488571Y-138572523D01*
X161488571Y-138643952D01*
X161512380Y-138691571D01*
X161536190Y-138715380D01*
X161583809Y-138739190D01*
X161774285Y-138739190D01*
X161774285Y-138239190D01*
X161607619Y-138239190D01*
X161560000Y-138263000D01*
X161536190Y-138286809D01*
X161512380Y-138334428D01*
X161512380Y-138382047D01*
X161536190Y-138429666D01*
X161560000Y-138453476D01*
X161607619Y-138477285D01*
X161774285Y-138477285D01*
X161202857Y-138739190D02*
X161250476Y-138715380D01*
X161274285Y-138691571D01*
X161298095Y-138643952D01*
X161298095Y-138501095D01*
X161274285Y-138453476D01*
X161250476Y-138429666D01*
X161202857Y-138405857D01*
X161131428Y-138405857D01*
X161083809Y-138429666D01*
X161060000Y-138453476D01*
X161036190Y-138501095D01*
X161036190Y-138643952D01*
X161060000Y-138691571D01*
X161083809Y-138715380D01*
X161131428Y-138739190D01*
X161202857Y-138739190D01*
X160750476Y-138739190D02*
X160798095Y-138715380D01*
X160821904Y-138691571D01*
X160845714Y-138643952D01*
X160845714Y-138501095D01*
X160821904Y-138453476D01*
X160798095Y-138429666D01*
X160750476Y-138405857D01*
X160679047Y-138405857D01*
X160631428Y-138429666D01*
X160607619Y-138453476D01*
X160583809Y-138501095D01*
X160583809Y-138643952D01*
X160607619Y-138691571D01*
X160631428Y-138715380D01*
X160679047Y-138739190D01*
X160750476Y-138739190D01*
X160369523Y-138405857D02*
X160369523Y-138905857D01*
X160369523Y-138429666D02*
X160321904Y-138405857D01*
X160226666Y-138405857D01*
X160179047Y-138429666D01*
X160155238Y-138453476D01*
X160131428Y-138501095D01*
X160131428Y-138643952D01*
X160155238Y-138691571D01*
X160179047Y-138715380D01*
X160226666Y-138739190D01*
X160321904Y-138739190D01*
X160369523Y-138715380D01*
X159607619Y-138239190D02*
X159440952Y-138739190D01*
X159274285Y-138239190D01*
X158845714Y-138739190D02*
X159131428Y-138739190D01*
X158988571Y-138739190D02*
X158988571Y-138239190D01*
X159036190Y-138310619D01*
X159083809Y-138358238D01*
X159131428Y-138382047D01*
X167083809Y-139565380D02*
X167012380Y-139589190D01*
X166893333Y-139589190D01*
X166845714Y-139565380D01*
X166821904Y-139541571D01*
X166798095Y-139493952D01*
X166798095Y-139446333D01*
X166821904Y-139398714D01*
X166845714Y-139374904D01*
X166893333Y-139351095D01*
X166988571Y-139327285D01*
X167036190Y-139303476D01*
X167060000Y-139279666D01*
X167083809Y-139232047D01*
X167083809Y-139184428D01*
X167060000Y-139136809D01*
X167036190Y-139113000D01*
X166988571Y-139089190D01*
X166869523Y-139089190D01*
X166798095Y-139113000D01*
X166369523Y-139565380D02*
X166417142Y-139589190D01*
X166512380Y-139589190D01*
X166560000Y-139565380D01*
X166583809Y-139541571D01*
X166607619Y-139493952D01*
X166607619Y-139351095D01*
X166583809Y-139303476D01*
X166560000Y-139279666D01*
X166512380Y-139255857D01*
X166417142Y-139255857D01*
X166369523Y-139279666D01*
X166083809Y-139589190D02*
X166131428Y-139565380D01*
X166155238Y-139541571D01*
X166179047Y-139493952D01*
X166179047Y-139351095D01*
X166155238Y-139303476D01*
X166131428Y-139279666D01*
X166083809Y-139255857D01*
X166012380Y-139255857D01*
X165964761Y-139279666D01*
X165940952Y-139303476D01*
X165917142Y-139351095D01*
X165917142Y-139493952D01*
X165940952Y-139541571D01*
X165964761Y-139565380D01*
X166012380Y-139589190D01*
X166083809Y-139589190D01*
X165774285Y-139255857D02*
X165583809Y-139255857D01*
X165702857Y-139089190D02*
X165702857Y-139517761D01*
X165679047Y-139565380D01*
X165631428Y-139589190D01*
X165583809Y-139589190D01*
X165488571Y-139255857D02*
X165298095Y-139255857D01*
X165417142Y-139089190D02*
X165417142Y-139517761D01*
X165393333Y-139565380D01*
X165345714Y-139589190D01*
X165298095Y-139589190D01*
X165107619Y-139089190D02*
X165155238Y-139184428D01*
X164917142Y-139565380D02*
X164869523Y-139589190D01*
X164774285Y-139589190D01*
X164726666Y-139565380D01*
X164702857Y-139517761D01*
X164702857Y-139493952D01*
X164726666Y-139446333D01*
X164774285Y-139422523D01*
X164845714Y-139422523D01*
X164893333Y-139398714D01*
X164917142Y-139351095D01*
X164917142Y-139327285D01*
X164893333Y-139279666D01*
X164845714Y-139255857D01*
X164774285Y-139255857D01*
X164726666Y-139279666D01*
X163821904Y-139541571D02*
X163845714Y-139565380D01*
X163917142Y-139589190D01*
X163964761Y-139589190D01*
X164036190Y-139565380D01*
X164083809Y-139517761D01*
X164107619Y-139470142D01*
X164131428Y-139374904D01*
X164131428Y-139303476D01*
X164107619Y-139208238D01*
X164083809Y-139160619D01*
X164036190Y-139113000D01*
X163964761Y-139089190D01*
X163917142Y-139089190D01*
X163845714Y-139113000D01*
X163821904Y-139136809D01*
X163607619Y-139589190D02*
X163607619Y-139255857D01*
X163607619Y-139351095D02*
X163583809Y-139303476D01*
X163560000Y-139279666D01*
X163512380Y-139255857D01*
X163464761Y-139255857D01*
X163107619Y-139565380D02*
X163155238Y-139589190D01*
X163250476Y-139589190D01*
X163298095Y-139565380D01*
X163321904Y-139517761D01*
X163321904Y-139327285D01*
X163298095Y-139279666D01*
X163250476Y-139255857D01*
X163155238Y-139255857D01*
X163107619Y-139279666D01*
X163083809Y-139327285D01*
X163083809Y-139374904D01*
X163321904Y-139422523D01*
X162655238Y-139589190D02*
X162655238Y-139327285D01*
X162679047Y-139279666D01*
X162726666Y-139255857D01*
X162821904Y-139255857D01*
X162869523Y-139279666D01*
X162655238Y-139565380D02*
X162702857Y-139589190D01*
X162821904Y-139589190D01*
X162869523Y-139565380D01*
X162893333Y-139517761D01*
X162893333Y-139470142D01*
X162869523Y-139422523D01*
X162821904Y-139398714D01*
X162702857Y-139398714D01*
X162655238Y-139374904D01*
X162488571Y-139255857D02*
X162298095Y-139255857D01*
X162417142Y-139089190D02*
X162417142Y-139517761D01*
X162393333Y-139565380D01*
X162345714Y-139589190D01*
X162298095Y-139589190D01*
X162131428Y-139589190D02*
X162131428Y-139255857D01*
X162131428Y-139089190D02*
X162155238Y-139113000D01*
X162131428Y-139136809D01*
X162107619Y-139113000D01*
X162131428Y-139089190D01*
X162131428Y-139136809D01*
X161940952Y-139255857D02*
X161821904Y-139589190D01*
X161702857Y-139255857D01*
X161321904Y-139565380D02*
X161369523Y-139589190D01*
X161464761Y-139589190D01*
X161512380Y-139565380D01*
X161536190Y-139517761D01*
X161536190Y-139327285D01*
X161512380Y-139279666D01*
X161464761Y-139255857D01*
X161369523Y-139255857D01*
X161321904Y-139279666D01*
X161298095Y-139327285D01*
X161298095Y-139374904D01*
X161536190Y-139422523D01*
X160702857Y-139589190D02*
X160702857Y-139089190D01*
X160583809Y-139089190D01*
X160512380Y-139113000D01*
X160464761Y-139160619D01*
X160440952Y-139208238D01*
X160417142Y-139303476D01*
X160417142Y-139374904D01*
X160440952Y-139470142D01*
X160464761Y-139517761D01*
X160512380Y-139565380D01*
X160583809Y-139589190D01*
X160702857Y-139589190D01*
X160012380Y-139565380D02*
X160060000Y-139589190D01*
X160155238Y-139589190D01*
X160202857Y-139565380D01*
X160226666Y-139517761D01*
X160226666Y-139327285D01*
X160202857Y-139279666D01*
X160155238Y-139255857D01*
X160060000Y-139255857D01*
X160012380Y-139279666D01*
X159988571Y-139327285D01*
X159988571Y-139374904D01*
X160226666Y-139422523D01*
X159798095Y-139565380D02*
X159750476Y-139589190D01*
X159655238Y-139589190D01*
X159607619Y-139565380D01*
X159583809Y-139517761D01*
X159583809Y-139493952D01*
X159607619Y-139446333D01*
X159655238Y-139422523D01*
X159726666Y-139422523D01*
X159774285Y-139398714D01*
X159798095Y-139351095D01*
X159798095Y-139327285D01*
X159774285Y-139279666D01*
X159726666Y-139255857D01*
X159655238Y-139255857D01*
X159607619Y-139279666D01*
X159369523Y-139589190D02*
X159369523Y-139255857D01*
X159369523Y-139089190D02*
X159393333Y-139113000D01*
X159369523Y-139136809D01*
X159345714Y-139113000D01*
X159369523Y-139089190D01*
X159369523Y-139136809D01*
X158917142Y-139255857D02*
X158917142Y-139660619D01*
X158940952Y-139708238D01*
X158964761Y-139732047D01*
X159012380Y-139755857D01*
X159083809Y-139755857D01*
X159131428Y-139732047D01*
X158917142Y-139565380D02*
X158964761Y-139589190D01*
X159060000Y-139589190D01*
X159107619Y-139565380D01*
X159131428Y-139541571D01*
X159155238Y-139493952D01*
X159155238Y-139351095D01*
X159131428Y-139303476D01*
X159107619Y-139279666D01*
X159060000Y-139255857D01*
X158964761Y-139255857D01*
X158917142Y-139279666D01*
X158679047Y-139255857D02*
X158679047Y-139589190D01*
X158679047Y-139303476D02*
X158655238Y-139279666D01*
X158607619Y-139255857D01*
X158536190Y-139255857D01*
X158488571Y-139279666D01*
X158464761Y-139327285D01*
X158464761Y-139589190D01*
X158250476Y-139565380D02*
X158202857Y-139589190D01*
X158107619Y-139589190D01*
X158060000Y-139565380D01*
X158036190Y-139517761D01*
X158036190Y-139493952D01*
X158060000Y-139446333D01*
X158107619Y-139422523D01*
X158179047Y-139422523D01*
X158226666Y-139398714D01*
X158250476Y-139351095D01*
X158250476Y-139327285D01*
X158226666Y-139279666D01*
X158179047Y-139255857D01*
X158107619Y-139255857D01*
X158060000Y-139279666D01*
D11*
G04 #@! TO.C,C14*
X162897078Y-134418000D02*
X162379922Y-134418000D01*
X162897078Y-135838000D02*
X162379922Y-135838000D01*
G04 #@! TO.C,C1*
X178000000Y-137841078D02*
X178000000Y-137323922D01*
X179420000Y-137841078D02*
X179420000Y-137323922D01*
G04 #@! TO.C,C2*
X173938000Y-134790922D02*
X173938000Y-135308078D01*
X172518000Y-134790922D02*
X172518000Y-135308078D01*
G04 #@! TO.C,C3*
X174550000Y-134693922D02*
X174550000Y-135211078D01*
X175970000Y-134693922D02*
X175970000Y-135211078D01*
G04 #@! TO.C,C10*
X159880000Y-128893922D02*
X159880000Y-129411078D01*
X158460000Y-128893922D02*
X158460000Y-129411078D01*
G04 #@! TO.C,C11*
X164551078Y-132240000D02*
X164033922Y-132240000D01*
X164551078Y-133660000D02*
X164033922Y-133660000D01*
G04 #@! TO.C,C13*
X164431078Y-131340000D02*
X163913922Y-131340000D01*
X164431078Y-129920000D02*
X163913922Y-129920000D01*
G04 #@! TO.C,C18*
X158883922Y-113450000D02*
X159401078Y-113450000D01*
X158883922Y-114870000D02*
X159401078Y-114870000D01*
G04 #@! TO.C,C19*
X158802000Y-109293922D02*
X158802000Y-109811078D01*
X160222000Y-109293922D02*
X160222000Y-109811078D01*
G04 #@! TO.C,R7*
X164572779Y-87410000D02*
X164247221Y-87410000D01*
X164572779Y-88430000D02*
X164247221Y-88430000D01*
G04 #@! TO.C,R9*
X164475279Y-114048000D02*
X164149721Y-114048000D01*
X164475279Y-113028000D02*
X164149721Y-113028000D01*
G04 #@! TO.C,R11*
X161914721Y-98554000D02*
X162240279Y-98554000D01*
X161914721Y-97534000D02*
X162240279Y-97534000D01*
G04 #@! TO.C,U1*
X179716000Y-135468000D02*
X177916000Y-135468000D01*
X177916000Y-132248000D02*
X180366000Y-132248000D01*
D12*
G04 #@! TO.C,U5*
X165675000Y-94050000D02*
X165675000Y-92125000D01*
X162425000Y-93275000D02*
X162425000Y-92125000D01*
X165500000Y-94250000D02*
G75*
G03X165500000Y-94250000I-100000J0D01*
G01*
G04 #@! TO.C,U6*
X160258000Y-116348000D02*
X160258000Y-118348000D01*
X158258000Y-118348000D02*
X158258000Y-116348000D01*
X158278711Y-115748000D02*
G75*
G03X158278711Y-115748000I-70711J0D01*
G01*
D11*
G04 #@! TO.C,C8*
X159828922Y-122990000D02*
X160346078Y-122990000D01*
X159828922Y-124410000D02*
X160346078Y-124410000D01*
G04 #@! TO.C,C21*
X163818922Y-121860000D02*
X164336078Y-121860000D01*
X163818922Y-120440000D02*
X164336078Y-120440000D01*
G04 #@! TO.C,L4*
X159981422Y-121840000D02*
X160498578Y-121840000D01*
X159981422Y-120420000D02*
X160498578Y-120420000D01*
G04 #@! TO.C,U7*
X164678000Y-116448000D02*
X164678000Y-118248000D01*
X161458000Y-118248000D02*
X161458000Y-115798000D01*
G04 #@! TO.C,C6*
X170633922Y-132850000D02*
X171151078Y-132850000D01*
X170633922Y-131430000D02*
X171151078Y-131430000D01*
G04 #@! TO.C,C7*
X168406578Y-137466000D02*
X167889422Y-137466000D01*
X168406578Y-138886000D02*
X167889422Y-138886000D01*
G04 #@! TO.C,R6*
X166880000Y-135798779D02*
X166880000Y-135473221D01*
X165860000Y-135798779D02*
X165860000Y-135473221D01*
G04 #@! TO.C,C14*
D12*
X160059857Y-135637142D02*
X160107476Y-135684761D01*
X160250333Y-135732380D01*
X160345571Y-135732380D01*
X160488428Y-135684761D01*
X160583666Y-135589523D01*
X160631285Y-135494285D01*
X160678904Y-135303809D01*
X160678904Y-135160952D01*
X160631285Y-134970476D01*
X160583666Y-134875238D01*
X160488428Y-134780000D01*
X160345571Y-134732380D01*
X160250333Y-134732380D01*
X160107476Y-134780000D01*
X160059857Y-134827619D01*
X159107476Y-135732380D02*
X159678904Y-135732380D01*
X159393190Y-135732380D02*
X159393190Y-134732380D01*
X159488428Y-134875238D01*
X159583666Y-134970476D01*
X159678904Y-135018095D01*
X158250333Y-135065714D02*
X158250333Y-135732380D01*
X158488428Y-134684761D02*
X158726523Y-135399047D01*
X158107476Y-135399047D01*
G04 #@! TO.C,C1*
X180760666Y-138533142D02*
X180808285Y-138580761D01*
X180951142Y-138628380D01*
X181046380Y-138628380D01*
X181189238Y-138580761D01*
X181284476Y-138485523D01*
X181332095Y-138390285D01*
X181379714Y-138199809D01*
X181379714Y-138056952D01*
X181332095Y-137866476D01*
X181284476Y-137771238D01*
X181189238Y-137676000D01*
X181046380Y-137628380D01*
X180951142Y-137628380D01*
X180808285Y-137676000D01*
X180760666Y-137723619D01*
X179808285Y-138628380D02*
X180379714Y-138628380D01*
X180094000Y-138628380D02*
X180094000Y-137628380D01*
X180189238Y-137771238D01*
X180284476Y-137866476D01*
X180379714Y-137914095D01*
G04 #@! TO.C,C2*
X173569666Y-133199142D02*
X173617285Y-133246761D01*
X173760142Y-133294380D01*
X173855380Y-133294380D01*
X173998238Y-133246761D01*
X174093476Y-133151523D01*
X174141095Y-133056285D01*
X174188714Y-132865809D01*
X174188714Y-132722952D01*
X174141095Y-132532476D01*
X174093476Y-132437238D01*
X173998238Y-132342000D01*
X173855380Y-132294380D01*
X173760142Y-132294380D01*
X173617285Y-132342000D01*
X173569666Y-132389619D01*
X173188714Y-132389619D02*
X173141095Y-132342000D01*
X173045857Y-132294380D01*
X172807761Y-132294380D01*
X172712523Y-132342000D01*
X172664904Y-132389619D01*
X172617285Y-132484857D01*
X172617285Y-132580095D01*
X172664904Y-132722952D01*
X173236333Y-133294380D01*
X172617285Y-133294380D01*
G04 #@! TO.C,C3*
X175934666Y-133199142D02*
X175982285Y-133246761D01*
X176125142Y-133294380D01*
X176220380Y-133294380D01*
X176363238Y-133246761D01*
X176458476Y-133151523D01*
X176506095Y-133056285D01*
X176553714Y-132865809D01*
X176553714Y-132722952D01*
X176506095Y-132532476D01*
X176458476Y-132437238D01*
X176363238Y-132342000D01*
X176220380Y-132294380D01*
X176125142Y-132294380D01*
X175982285Y-132342000D01*
X175934666Y-132389619D01*
X175601333Y-132294380D02*
X174982285Y-132294380D01*
X175315619Y-132675333D01*
X175172761Y-132675333D01*
X175077523Y-132722952D01*
X175029904Y-132770571D01*
X174982285Y-132865809D01*
X174982285Y-133103904D01*
X175029904Y-133199142D01*
X175077523Y-133246761D01*
X175172761Y-133294380D01*
X175458476Y-133294380D01*
X175553714Y-133246761D01*
X175601333Y-133199142D01*
G04 #@! TO.C,C10*
X159900857Y-131929142D02*
X159948476Y-131976761D01*
X160091333Y-132024380D01*
X160186571Y-132024380D01*
X160329428Y-131976761D01*
X160424666Y-131881523D01*
X160472285Y-131786285D01*
X160519904Y-131595809D01*
X160519904Y-131452952D01*
X160472285Y-131262476D01*
X160424666Y-131167238D01*
X160329428Y-131072000D01*
X160186571Y-131024380D01*
X160091333Y-131024380D01*
X159948476Y-131072000D01*
X159900857Y-131119619D01*
X158948476Y-132024380D02*
X159519904Y-132024380D01*
X159234190Y-132024380D02*
X159234190Y-131024380D01*
X159329428Y-131167238D01*
X159424666Y-131262476D01*
X159519904Y-131310095D01*
X158329428Y-131024380D02*
X158234190Y-131024380D01*
X158138952Y-131072000D01*
X158091333Y-131119619D01*
X158043714Y-131214857D01*
X157996095Y-131405333D01*
X157996095Y-131643428D01*
X158043714Y-131833904D01*
X158091333Y-131929142D01*
X158138952Y-131976761D01*
X158234190Y-132024380D01*
X158329428Y-132024380D01*
X158424666Y-131976761D01*
X158472285Y-131929142D01*
X158519904Y-131833904D01*
X158567523Y-131643428D01*
X158567523Y-131405333D01*
X158519904Y-131214857D01*
X158472285Y-131119619D01*
X158424666Y-131072000D01*
X158329428Y-131024380D01*
G04 #@! TO.C,C11*
X161932857Y-133453142D02*
X161980476Y-133500761D01*
X162123333Y-133548380D01*
X162218571Y-133548380D01*
X162361428Y-133500761D01*
X162456666Y-133405523D01*
X162504285Y-133310285D01*
X162551904Y-133119809D01*
X162551904Y-132976952D01*
X162504285Y-132786476D01*
X162456666Y-132691238D01*
X162361428Y-132596000D01*
X162218571Y-132548380D01*
X162123333Y-132548380D01*
X161980476Y-132596000D01*
X161932857Y-132643619D01*
X160980476Y-133548380D02*
X161551904Y-133548380D01*
X161266190Y-133548380D02*
X161266190Y-132548380D01*
X161361428Y-132691238D01*
X161456666Y-132786476D01*
X161551904Y-132834095D01*
X160028095Y-133548380D02*
X160599523Y-133548380D01*
X160313809Y-133548380D02*
X160313809Y-132548380D01*
X160409047Y-132691238D01*
X160504285Y-132786476D01*
X160599523Y-132834095D01*
G04 #@! TO.C,C13*
X164815357Y-129337142D02*
X164862976Y-129384761D01*
X165005833Y-129432380D01*
X165101071Y-129432380D01*
X165243928Y-129384761D01*
X165339166Y-129289523D01*
X165386785Y-129194285D01*
X165434404Y-129003809D01*
X165434404Y-128860952D01*
X165386785Y-128670476D01*
X165339166Y-128575238D01*
X165243928Y-128480000D01*
X165101071Y-128432380D01*
X165005833Y-128432380D01*
X164862976Y-128480000D01*
X164815357Y-128527619D01*
X163862976Y-129432380D02*
X164434404Y-129432380D01*
X164148690Y-129432380D02*
X164148690Y-128432380D01*
X164243928Y-128575238D01*
X164339166Y-128670476D01*
X164434404Y-128718095D01*
X163529642Y-128432380D02*
X162910595Y-128432380D01*
X163243928Y-128813333D01*
X163101071Y-128813333D01*
X163005833Y-128860952D01*
X162958214Y-128908571D01*
X162910595Y-129003809D01*
X162910595Y-129241904D01*
X162958214Y-129337142D01*
X163005833Y-129384761D01*
X163101071Y-129432380D01*
X163386785Y-129432380D01*
X163482023Y-129384761D01*
X163529642Y-129337142D01*
G04 #@! TO.C,C18*
X159900857Y-113133142D02*
X159948476Y-113180761D01*
X160091333Y-113228380D01*
X160186571Y-113228380D01*
X160329428Y-113180761D01*
X160424666Y-113085523D01*
X160472285Y-112990285D01*
X160519904Y-112799809D01*
X160519904Y-112656952D01*
X160472285Y-112466476D01*
X160424666Y-112371238D01*
X160329428Y-112276000D01*
X160186571Y-112228380D01*
X160091333Y-112228380D01*
X159948476Y-112276000D01*
X159900857Y-112323619D01*
X158948476Y-113228380D02*
X159519904Y-113228380D01*
X159234190Y-113228380D02*
X159234190Y-112228380D01*
X159329428Y-112371238D01*
X159424666Y-112466476D01*
X159519904Y-112514095D01*
X158377047Y-112656952D02*
X158472285Y-112609333D01*
X158519904Y-112561714D01*
X158567523Y-112466476D01*
X158567523Y-112418857D01*
X158519904Y-112323619D01*
X158472285Y-112276000D01*
X158377047Y-112228380D01*
X158186571Y-112228380D01*
X158091333Y-112276000D01*
X158043714Y-112323619D01*
X157996095Y-112418857D01*
X157996095Y-112466476D01*
X158043714Y-112561714D01*
X158091333Y-112609333D01*
X158186571Y-112656952D01*
X158377047Y-112656952D01*
X158472285Y-112704571D01*
X158519904Y-112752190D01*
X158567523Y-112847428D01*
X158567523Y-113037904D01*
X158519904Y-113133142D01*
X158472285Y-113180761D01*
X158377047Y-113228380D01*
X158186571Y-113228380D01*
X158091333Y-113180761D01*
X158043714Y-113133142D01*
X157996095Y-113037904D01*
X157996095Y-112847428D01*
X158043714Y-112752190D01*
X158091333Y-112704571D01*
X158186571Y-112656952D01*
G04 #@! TO.C,C19*
X162694857Y-109577142D02*
X162742476Y-109624761D01*
X162885333Y-109672380D01*
X162980571Y-109672380D01*
X163123428Y-109624761D01*
X163218666Y-109529523D01*
X163266285Y-109434285D01*
X163313904Y-109243809D01*
X163313904Y-109100952D01*
X163266285Y-108910476D01*
X163218666Y-108815238D01*
X163123428Y-108720000D01*
X162980571Y-108672380D01*
X162885333Y-108672380D01*
X162742476Y-108720000D01*
X162694857Y-108767619D01*
X161742476Y-109672380D02*
X162313904Y-109672380D01*
X162028190Y-109672380D02*
X162028190Y-108672380D01*
X162123428Y-108815238D01*
X162218666Y-108910476D01*
X162313904Y-108958095D01*
X161266285Y-109672380D02*
X161075809Y-109672380D01*
X160980571Y-109624761D01*
X160932952Y-109577142D01*
X160837714Y-109434285D01*
X160790095Y-109243809D01*
X160790095Y-108862857D01*
X160837714Y-108767619D01*
X160885333Y-108720000D01*
X160980571Y-108672380D01*
X161171047Y-108672380D01*
X161266285Y-108720000D01*
X161313904Y-108767619D01*
X161361523Y-108862857D01*
X161361523Y-109100952D01*
X161313904Y-109196190D01*
X161266285Y-109243809D01*
X161171047Y-109291428D01*
X160980571Y-109291428D01*
X160885333Y-109243809D01*
X160837714Y-109196190D01*
X160790095Y-109100952D01*
G04 #@! TO.C,JP1*
D13*
X163808000Y-89386171D02*
X163808000Y-89821600D01*
X163837028Y-89908685D01*
X163895085Y-89966742D01*
X163982171Y-89995771D01*
X164040228Y-89995771D01*
X163517714Y-89995771D02*
X163517714Y-89386171D01*
X163285485Y-89386171D01*
X163227428Y-89415200D01*
X163198400Y-89444228D01*
X163169371Y-89502285D01*
X163169371Y-89589371D01*
X163198400Y-89647428D01*
X163227428Y-89676457D01*
X163285485Y-89705485D01*
X163517714Y-89705485D01*
X162588800Y-89995771D02*
X162937142Y-89995771D01*
X162762971Y-89995771D02*
X162762971Y-89386171D01*
X162821028Y-89473257D01*
X162879085Y-89531314D01*
X162937142Y-89560342D01*
G04 #@! TO.C,R7*
D12*
X162218666Y-88336380D02*
X162552000Y-87860190D01*
X162790095Y-88336380D02*
X162790095Y-87336380D01*
X162409142Y-87336380D01*
X162313904Y-87384000D01*
X162266285Y-87431619D01*
X162218666Y-87526857D01*
X162218666Y-87669714D01*
X162266285Y-87764952D01*
X162313904Y-87812571D01*
X162409142Y-87860190D01*
X162790095Y-87860190D01*
X161885333Y-87336380D02*
X161218666Y-87336380D01*
X161647238Y-88336380D01*
G04 #@! TO.C,R9*
X164479166Y-112560380D02*
X164812500Y-112084190D01*
X165050595Y-112560380D02*
X165050595Y-111560380D01*
X164669642Y-111560380D01*
X164574404Y-111608000D01*
X164526785Y-111655619D01*
X164479166Y-111750857D01*
X164479166Y-111893714D01*
X164526785Y-111988952D01*
X164574404Y-112036571D01*
X164669642Y-112084190D01*
X165050595Y-112084190D01*
X164002976Y-112560380D02*
X163812500Y-112560380D01*
X163717261Y-112512761D01*
X163669642Y-112465142D01*
X163574404Y-112322285D01*
X163526785Y-112131809D01*
X163526785Y-111750857D01*
X163574404Y-111655619D01*
X163622023Y-111608000D01*
X163717261Y-111560380D01*
X163907738Y-111560380D01*
X164002976Y-111608000D01*
X164050595Y-111655619D01*
X164098214Y-111750857D01*
X164098214Y-111988952D01*
X164050595Y-112084190D01*
X164002976Y-112131809D01*
X163907738Y-112179428D01*
X163717261Y-112179428D01*
X163622023Y-112131809D01*
X163574404Y-112084190D01*
X163526785Y-111988952D01*
G04 #@! TO.C,R11*
X162694857Y-96972380D02*
X163028190Y-96496190D01*
X163266285Y-96972380D02*
X163266285Y-95972380D01*
X162885333Y-95972380D01*
X162790095Y-96020000D01*
X162742476Y-96067619D01*
X162694857Y-96162857D01*
X162694857Y-96305714D01*
X162742476Y-96400952D01*
X162790095Y-96448571D01*
X162885333Y-96496190D01*
X163266285Y-96496190D01*
X161742476Y-96972380D02*
X162313904Y-96972380D01*
X162028190Y-96972380D02*
X162028190Y-95972380D01*
X162123428Y-96115238D01*
X162218666Y-96210476D01*
X162313904Y-96258095D01*
X160790095Y-96972380D02*
X161361523Y-96972380D01*
X161075809Y-96972380D02*
X161075809Y-95972380D01*
X161171047Y-96115238D01*
X161266285Y-96210476D01*
X161361523Y-96258095D01*
G04 #@! TO.C,U1*
X182625904Y-132802380D02*
X182625904Y-133611904D01*
X182578285Y-133707142D01*
X182530666Y-133754761D01*
X182435428Y-133802380D01*
X182244952Y-133802380D01*
X182149714Y-133754761D01*
X182102095Y-133707142D01*
X182054476Y-133611904D01*
X182054476Y-132802380D01*
X181054476Y-133802380D02*
X181625904Y-133802380D01*
X181340190Y-133802380D02*
X181340190Y-132802380D01*
X181435428Y-132945238D01*
X181530666Y-133040476D01*
X181625904Y-133088095D01*
G04 #@! TO.C,U5*
X162022884Y-92162380D02*
X162022884Y-92971904D01*
X161975265Y-93067142D01*
X161927646Y-93114761D01*
X161832408Y-93162380D01*
X161641932Y-93162380D01*
X161546694Y-93114761D01*
X161499075Y-93067142D01*
X161451456Y-92971904D01*
X161451456Y-92162380D01*
X160499075Y-92162380D02*
X160975265Y-92162380D01*
X161022884Y-92638571D01*
X160975265Y-92590952D01*
X160880027Y-92543333D01*
X160641932Y-92543333D01*
X160546694Y-92590952D01*
X160499075Y-92638571D01*
X160451456Y-92733809D01*
X160451456Y-92971904D01*
X160499075Y-93067142D01*
X160546694Y-93114761D01*
X160641932Y-93162380D01*
X160880027Y-93162380D01*
X160975265Y-93114761D01*
X161022884Y-93067142D01*
G04 #@! TO.C,U6*
X158749904Y-119086380D02*
X158749904Y-119895904D01*
X158702285Y-119991142D01*
X158654666Y-120038761D01*
X158559428Y-120086380D01*
X158368952Y-120086380D01*
X158273714Y-120038761D01*
X158226095Y-119991142D01*
X158178476Y-119895904D01*
X158178476Y-119086380D01*
X157273714Y-119086380D02*
X157464190Y-119086380D01*
X157559428Y-119134000D01*
X157607047Y-119181619D01*
X157702285Y-119324476D01*
X157749904Y-119514952D01*
X157749904Y-119895904D01*
X157702285Y-119991142D01*
X157654666Y-120038761D01*
X157559428Y-120086380D01*
X157368952Y-120086380D01*
X157273714Y-120038761D01*
X157226095Y-119991142D01*
X157178476Y-119895904D01*
X157178476Y-119657809D01*
X157226095Y-119562571D01*
X157273714Y-119514952D01*
X157368952Y-119467333D01*
X157559428Y-119467333D01*
X157654666Y-119514952D01*
X157702285Y-119562571D01*
X157749904Y-119657809D01*
G04 #@! TO.C,J4*
X165179333Y-103084380D02*
X165179333Y-103798666D01*
X165226952Y-103941523D01*
X165322190Y-104036761D01*
X165465047Y-104084380D01*
X165560285Y-104084380D01*
X164274571Y-103417714D02*
X164274571Y-104084380D01*
X164512666Y-103036761D02*
X164750761Y-103751047D01*
X164131714Y-103751047D01*
G04 #@! TO.C,C8*
X160254166Y-125707142D02*
X160301785Y-125754761D01*
X160444642Y-125802380D01*
X160539880Y-125802380D01*
X160682738Y-125754761D01*
X160777976Y-125659523D01*
X160825595Y-125564285D01*
X160873214Y-125373809D01*
X160873214Y-125230952D01*
X160825595Y-125040476D01*
X160777976Y-124945238D01*
X160682738Y-124850000D01*
X160539880Y-124802380D01*
X160444642Y-124802380D01*
X160301785Y-124850000D01*
X160254166Y-124897619D01*
X159682738Y-125230952D02*
X159777976Y-125183333D01*
X159825595Y-125135714D01*
X159873214Y-125040476D01*
X159873214Y-124992857D01*
X159825595Y-124897619D01*
X159777976Y-124850000D01*
X159682738Y-124802380D01*
X159492261Y-124802380D01*
X159397023Y-124850000D01*
X159349404Y-124897619D01*
X159301785Y-124992857D01*
X159301785Y-125040476D01*
X159349404Y-125135714D01*
X159397023Y-125183333D01*
X159492261Y-125230952D01*
X159682738Y-125230952D01*
X159777976Y-125278571D01*
X159825595Y-125326190D01*
X159873214Y-125421428D01*
X159873214Y-125611904D01*
X159825595Y-125707142D01*
X159777976Y-125754761D01*
X159682738Y-125802380D01*
X159492261Y-125802380D01*
X159397023Y-125754761D01*
X159349404Y-125707142D01*
X159301785Y-125611904D01*
X159301785Y-125421428D01*
X159349404Y-125326190D01*
X159397023Y-125278571D01*
X159492261Y-125230952D01*
G04 #@! TO.C,LS1*
X181998857Y-130246380D02*
X182475047Y-130246380D01*
X182475047Y-129246380D01*
X181713142Y-130198761D02*
X181570285Y-130246380D01*
X181332190Y-130246380D01*
X181236952Y-130198761D01*
X181189333Y-130151142D01*
X181141714Y-130055904D01*
X181141714Y-129960666D01*
X181189333Y-129865428D01*
X181236952Y-129817809D01*
X181332190Y-129770190D01*
X181522666Y-129722571D01*
X181617904Y-129674952D01*
X181665523Y-129627333D01*
X181713142Y-129532095D01*
X181713142Y-129436857D01*
X181665523Y-129341619D01*
X181617904Y-129294000D01*
X181522666Y-129246380D01*
X181284571Y-129246380D01*
X181141714Y-129294000D01*
X180189333Y-130246380D02*
X180760761Y-130246380D01*
X180475047Y-130246380D02*
X180475047Y-129246380D01*
X180570285Y-129389238D01*
X180665523Y-129484476D01*
X180760761Y-129532095D01*
G04 #@! TO.C,C21*
X164720357Y-123157142D02*
X164767976Y-123204761D01*
X164910833Y-123252380D01*
X165006071Y-123252380D01*
X165148928Y-123204761D01*
X165244166Y-123109523D01*
X165291785Y-123014285D01*
X165339404Y-122823809D01*
X165339404Y-122680952D01*
X165291785Y-122490476D01*
X165244166Y-122395238D01*
X165148928Y-122300000D01*
X165006071Y-122252380D01*
X164910833Y-122252380D01*
X164767976Y-122300000D01*
X164720357Y-122347619D01*
X164339404Y-122347619D02*
X164291785Y-122300000D01*
X164196547Y-122252380D01*
X163958452Y-122252380D01*
X163863214Y-122300000D01*
X163815595Y-122347619D01*
X163767976Y-122442857D01*
X163767976Y-122538095D01*
X163815595Y-122680952D01*
X164387023Y-123252380D01*
X163767976Y-123252380D01*
X162815595Y-123252380D02*
X163387023Y-123252380D01*
X163101309Y-123252380D02*
X163101309Y-122252380D01*
X163196547Y-122395238D01*
X163291785Y-122490476D01*
X163387023Y-122538095D01*
G04 #@! TO.C,L4*
X157900666Y-121864380D02*
X158376857Y-121864380D01*
X158376857Y-120864380D01*
X157138761Y-121197714D02*
X157138761Y-121864380D01*
X157376857Y-120816761D02*
X157614952Y-121531047D01*
X156995904Y-121531047D01*
G04 #@! TO.C,U7*
X163067904Y-114260380D02*
X163067904Y-115069904D01*
X163020285Y-115165142D01*
X162972666Y-115212761D01*
X162877428Y-115260380D01*
X162686952Y-115260380D01*
X162591714Y-115212761D01*
X162544095Y-115165142D01*
X162496476Y-115069904D01*
X162496476Y-114260380D01*
X162115523Y-114260380D02*
X161448857Y-114260380D01*
X161877428Y-115260380D01*
G04 #@! TO.C,JP3*
D13*
X171704000Y-135048171D02*
X171704000Y-135483600D01*
X171733028Y-135570685D01*
X171791085Y-135628742D01*
X171878171Y-135657771D01*
X171936228Y-135657771D01*
X171413714Y-135657771D02*
X171413714Y-135048171D01*
X171181485Y-135048171D01*
X171123428Y-135077200D01*
X171094400Y-135106228D01*
X171065371Y-135164285D01*
X171065371Y-135251371D01*
X171094400Y-135309428D01*
X171123428Y-135338457D01*
X171181485Y-135367485D01*
X171413714Y-135367485D01*
X170862171Y-135048171D02*
X170484800Y-135048171D01*
X170688000Y-135280400D01*
X170600914Y-135280400D01*
X170542857Y-135309428D01*
X170513828Y-135338457D01*
X170484800Y-135396514D01*
X170484800Y-135541657D01*
X170513828Y-135599714D01*
X170542857Y-135628742D01*
X170600914Y-135657771D01*
X170775085Y-135657771D01*
X170833142Y-135628742D01*
X170862171Y-135599714D01*
G04 #@! TO.C,JP4*
X168757600Y-136064171D02*
X168757600Y-136499600D01*
X168786628Y-136586685D01*
X168844685Y-136644742D01*
X168931771Y-136673771D01*
X168989828Y-136673771D01*
X168467314Y-136673771D02*
X168467314Y-136064171D01*
X168235085Y-136064171D01*
X168177028Y-136093200D01*
X168148000Y-136122228D01*
X168118971Y-136180285D01*
X168118971Y-136267371D01*
X168148000Y-136325428D01*
X168177028Y-136354457D01*
X168235085Y-136383485D01*
X168467314Y-136383485D01*
X167596457Y-136267371D02*
X167596457Y-136673771D01*
X167741600Y-136035142D02*
X167886742Y-136470571D01*
X167509371Y-136470571D01*
G04 #@! TO.C,C6*
D12*
X170854666Y-130659142D02*
X170902285Y-130706761D01*
X171045142Y-130754380D01*
X171140380Y-130754380D01*
X171283238Y-130706761D01*
X171378476Y-130611523D01*
X171426095Y-130516285D01*
X171473714Y-130325809D01*
X171473714Y-130182952D01*
X171426095Y-129992476D01*
X171378476Y-129897238D01*
X171283238Y-129802000D01*
X171140380Y-129754380D01*
X171045142Y-129754380D01*
X170902285Y-129802000D01*
X170854666Y-129849619D01*
X169997523Y-129754380D02*
X170188000Y-129754380D01*
X170283238Y-129802000D01*
X170330857Y-129849619D01*
X170426095Y-129992476D01*
X170473714Y-130182952D01*
X170473714Y-130563904D01*
X170426095Y-130659142D01*
X170378476Y-130706761D01*
X170283238Y-130754380D01*
X170092761Y-130754380D01*
X169997523Y-130706761D01*
X169949904Y-130659142D01*
X169902285Y-130563904D01*
X169902285Y-130325809D01*
X169949904Y-130230571D01*
X169997523Y-130182952D01*
X170092761Y-130135333D01*
X170283238Y-130135333D01*
X170378476Y-130182952D01*
X170426095Y-130230571D01*
X170473714Y-130325809D01*
G04 #@! TO.C,C7*
X168314666Y-136883142D02*
X168362285Y-136930761D01*
X168505142Y-136978380D01*
X168600380Y-136978380D01*
X168743238Y-136930761D01*
X168838476Y-136835523D01*
X168886095Y-136740285D01*
X168933714Y-136549809D01*
X168933714Y-136406952D01*
X168886095Y-136216476D01*
X168838476Y-136121238D01*
X168743238Y-136026000D01*
X168600380Y-135978380D01*
X168505142Y-135978380D01*
X168362285Y-136026000D01*
X168314666Y-136073619D01*
X167981333Y-135978380D02*
X167314666Y-135978380D01*
X167743238Y-136978380D01*
G04 #@! TO.C,R6*
X168252380Y-135469333D02*
X167776190Y-135136000D01*
X168252380Y-134897904D02*
X167252380Y-134897904D01*
X167252380Y-135278857D01*
X167300000Y-135374095D01*
X167347619Y-135421714D01*
X167442857Y-135469333D01*
X167585714Y-135469333D01*
X167680952Y-135421714D01*
X167728571Y-135374095D01*
X167776190Y-135278857D01*
X167776190Y-134897904D01*
X167252380Y-136326476D02*
X167252380Y-136136000D01*
X167300000Y-136040761D01*
X167347619Y-135993142D01*
X167490476Y-135897904D01*
X167680952Y-135850285D01*
X168061904Y-135850285D01*
X168157142Y-135897904D01*
X168204761Y-135945523D01*
X168252380Y-136040761D01*
X168252380Y-136231238D01*
X168204761Y-136326476D01*
X168157142Y-136374095D01*
X168061904Y-136421714D01*
X167823809Y-136421714D01*
X167728571Y-136374095D01*
X167680952Y-136326476D01*
X167633333Y-136231238D01*
X167633333Y-136040761D01*
X167680952Y-135945523D01*
X167728571Y-135897904D01*
X167823809Y-135850285D01*
G04 #@! TD*
M02*
