G04 #@! TF.GenerationSoftware,KiCad,Pcbnew,(5.0.1)-rc2*
G04 #@! TF.CreationDate,2019-03-21T01:05:14-07:00*
G04 #@! TF.ProjectId,littlebeepboop,6C6974746C6562656570626F6F702E6B,rev?*
G04 #@! TF.SameCoordinates,Original*
G04 #@! TF.FileFunction,Paste,Top*
G04 #@! TF.FilePolarity,Positive*
%FSLAX46Y46*%
G04 Gerber Fmt 4.6, Leading zero omitted, Abs format (unit mm)*
G04 Created by KiCad (PCBNEW (5.0.1)-rc2) date 3/21/2019 1:05:14 AM*
%MOMM*%
%LPD*%
G01*
G04 APERTURE LIST*
%ADD10C,0.100000*%
%ADD11C,0.975000*%
%ADD12R,2.500000X1.430000*%
%ADD13R,2.250000X0.400000*%
%ADD14C,0.875000*%
%ADD15R,4.000000X2.000000*%
%ADD16C,0.400000*%
%ADD17R,0.675000X0.400000*%
%ADD18R,0.400000X0.675000*%
%ADD19R,0.350000X0.500000*%
%ADD20R,1.000000X1.000000*%
%ADD21R,2.400000X0.740000*%
%ADD22R,0.350000X1.250000*%
%ADD23R,1.250000X0.350000*%
%ADD24R,1.500000X1.500000*%
%ADD25R,1.300000X1.800000*%
G04 APERTURE END LIST*
D10*
G04 #@! TO.C,C20*
G36*
X162050142Y-128451174D02*
X162073803Y-128454684D01*
X162097007Y-128460496D01*
X162119529Y-128468554D01*
X162141153Y-128478782D01*
X162161670Y-128491079D01*
X162180883Y-128505329D01*
X162198607Y-128521393D01*
X162214671Y-128539117D01*
X162228921Y-128558330D01*
X162241218Y-128578847D01*
X162251446Y-128600471D01*
X162259504Y-128622993D01*
X162265316Y-128646197D01*
X162268826Y-128669858D01*
X162270000Y-128693750D01*
X162270000Y-129606250D01*
X162268826Y-129630142D01*
X162265316Y-129653803D01*
X162259504Y-129677007D01*
X162251446Y-129699529D01*
X162241218Y-129721153D01*
X162228921Y-129741670D01*
X162214671Y-129760883D01*
X162198607Y-129778607D01*
X162180883Y-129794671D01*
X162161670Y-129808921D01*
X162141153Y-129821218D01*
X162119529Y-129831446D01*
X162097007Y-129839504D01*
X162073803Y-129845316D01*
X162050142Y-129848826D01*
X162026250Y-129850000D01*
X161538750Y-129850000D01*
X161514858Y-129848826D01*
X161491197Y-129845316D01*
X161467993Y-129839504D01*
X161445471Y-129831446D01*
X161423847Y-129821218D01*
X161403330Y-129808921D01*
X161384117Y-129794671D01*
X161366393Y-129778607D01*
X161350329Y-129760883D01*
X161336079Y-129741670D01*
X161323782Y-129721153D01*
X161313554Y-129699529D01*
X161305496Y-129677007D01*
X161299684Y-129653803D01*
X161296174Y-129630142D01*
X161295000Y-129606250D01*
X161295000Y-128693750D01*
X161296174Y-128669858D01*
X161299684Y-128646197D01*
X161305496Y-128622993D01*
X161313554Y-128600471D01*
X161323782Y-128578847D01*
X161336079Y-128558330D01*
X161350329Y-128539117D01*
X161366393Y-128521393D01*
X161384117Y-128505329D01*
X161403330Y-128491079D01*
X161423847Y-128478782D01*
X161445471Y-128468554D01*
X161467993Y-128460496D01*
X161491197Y-128454684D01*
X161514858Y-128451174D01*
X161538750Y-128450000D01*
X162026250Y-128450000D01*
X162050142Y-128451174D01*
X162050142Y-128451174D01*
G37*
D11*
X161782500Y-129150000D03*
D10*
G36*
X163925142Y-128451174D02*
X163948803Y-128454684D01*
X163972007Y-128460496D01*
X163994529Y-128468554D01*
X164016153Y-128478782D01*
X164036670Y-128491079D01*
X164055883Y-128505329D01*
X164073607Y-128521393D01*
X164089671Y-128539117D01*
X164103921Y-128558330D01*
X164116218Y-128578847D01*
X164126446Y-128600471D01*
X164134504Y-128622993D01*
X164140316Y-128646197D01*
X164143826Y-128669858D01*
X164145000Y-128693750D01*
X164145000Y-129606250D01*
X164143826Y-129630142D01*
X164140316Y-129653803D01*
X164134504Y-129677007D01*
X164126446Y-129699529D01*
X164116218Y-129721153D01*
X164103921Y-129741670D01*
X164089671Y-129760883D01*
X164073607Y-129778607D01*
X164055883Y-129794671D01*
X164036670Y-129808921D01*
X164016153Y-129821218D01*
X163994529Y-129831446D01*
X163972007Y-129839504D01*
X163948803Y-129845316D01*
X163925142Y-129848826D01*
X163901250Y-129850000D01*
X163413750Y-129850000D01*
X163389858Y-129848826D01*
X163366197Y-129845316D01*
X163342993Y-129839504D01*
X163320471Y-129831446D01*
X163298847Y-129821218D01*
X163278330Y-129808921D01*
X163259117Y-129794671D01*
X163241393Y-129778607D01*
X163225329Y-129760883D01*
X163211079Y-129741670D01*
X163198782Y-129721153D01*
X163188554Y-129699529D01*
X163180496Y-129677007D01*
X163174684Y-129653803D01*
X163171174Y-129630142D01*
X163170000Y-129606250D01*
X163170000Y-128693750D01*
X163171174Y-128669858D01*
X163174684Y-128646197D01*
X163180496Y-128622993D01*
X163188554Y-128600471D01*
X163198782Y-128578847D01*
X163211079Y-128558330D01*
X163225329Y-128539117D01*
X163241393Y-128521393D01*
X163259117Y-128505329D01*
X163278330Y-128491079D01*
X163298847Y-128478782D01*
X163320471Y-128468554D01*
X163342993Y-128460496D01*
X163366197Y-128454684D01*
X163389858Y-128451174D01*
X163413750Y-128450000D01*
X163901250Y-128450000D01*
X163925142Y-128451174D01*
X163925142Y-128451174D01*
G37*
D11*
X163657500Y-129150000D03*
G04 #@! TD*
D10*
G04 #@! TO.C,C5*
G36*
X171477642Y-138151174D02*
X171501303Y-138154684D01*
X171524507Y-138160496D01*
X171547029Y-138168554D01*
X171568653Y-138178782D01*
X171589170Y-138191079D01*
X171608383Y-138205329D01*
X171626107Y-138221393D01*
X171642171Y-138239117D01*
X171656421Y-138258330D01*
X171668718Y-138278847D01*
X171678946Y-138300471D01*
X171687004Y-138322993D01*
X171692816Y-138346197D01*
X171696326Y-138369858D01*
X171697500Y-138393750D01*
X171697500Y-139306250D01*
X171696326Y-139330142D01*
X171692816Y-139353803D01*
X171687004Y-139377007D01*
X171678946Y-139399529D01*
X171668718Y-139421153D01*
X171656421Y-139441670D01*
X171642171Y-139460883D01*
X171626107Y-139478607D01*
X171608383Y-139494671D01*
X171589170Y-139508921D01*
X171568653Y-139521218D01*
X171547029Y-139531446D01*
X171524507Y-139539504D01*
X171501303Y-139545316D01*
X171477642Y-139548826D01*
X171453750Y-139550000D01*
X170966250Y-139550000D01*
X170942358Y-139548826D01*
X170918697Y-139545316D01*
X170895493Y-139539504D01*
X170872971Y-139531446D01*
X170851347Y-139521218D01*
X170830830Y-139508921D01*
X170811617Y-139494671D01*
X170793893Y-139478607D01*
X170777829Y-139460883D01*
X170763579Y-139441670D01*
X170751282Y-139421153D01*
X170741054Y-139399529D01*
X170732996Y-139377007D01*
X170727184Y-139353803D01*
X170723674Y-139330142D01*
X170722500Y-139306250D01*
X170722500Y-138393750D01*
X170723674Y-138369858D01*
X170727184Y-138346197D01*
X170732996Y-138322993D01*
X170741054Y-138300471D01*
X170751282Y-138278847D01*
X170763579Y-138258330D01*
X170777829Y-138239117D01*
X170793893Y-138221393D01*
X170811617Y-138205329D01*
X170830830Y-138191079D01*
X170851347Y-138178782D01*
X170872971Y-138168554D01*
X170895493Y-138160496D01*
X170918697Y-138154684D01*
X170942358Y-138151174D01*
X170966250Y-138150000D01*
X171453750Y-138150000D01*
X171477642Y-138151174D01*
X171477642Y-138151174D01*
G37*
D11*
X171210000Y-138850000D03*
D10*
G36*
X169602642Y-138151174D02*
X169626303Y-138154684D01*
X169649507Y-138160496D01*
X169672029Y-138168554D01*
X169693653Y-138178782D01*
X169714170Y-138191079D01*
X169733383Y-138205329D01*
X169751107Y-138221393D01*
X169767171Y-138239117D01*
X169781421Y-138258330D01*
X169793718Y-138278847D01*
X169803946Y-138300471D01*
X169812004Y-138322993D01*
X169817816Y-138346197D01*
X169821326Y-138369858D01*
X169822500Y-138393750D01*
X169822500Y-139306250D01*
X169821326Y-139330142D01*
X169817816Y-139353803D01*
X169812004Y-139377007D01*
X169803946Y-139399529D01*
X169793718Y-139421153D01*
X169781421Y-139441670D01*
X169767171Y-139460883D01*
X169751107Y-139478607D01*
X169733383Y-139494671D01*
X169714170Y-139508921D01*
X169693653Y-139521218D01*
X169672029Y-139531446D01*
X169649507Y-139539504D01*
X169626303Y-139545316D01*
X169602642Y-139548826D01*
X169578750Y-139550000D01*
X169091250Y-139550000D01*
X169067358Y-139548826D01*
X169043697Y-139545316D01*
X169020493Y-139539504D01*
X168997971Y-139531446D01*
X168976347Y-139521218D01*
X168955830Y-139508921D01*
X168936617Y-139494671D01*
X168918893Y-139478607D01*
X168902829Y-139460883D01*
X168888579Y-139441670D01*
X168876282Y-139421153D01*
X168866054Y-139399529D01*
X168857996Y-139377007D01*
X168852184Y-139353803D01*
X168848674Y-139330142D01*
X168847500Y-139306250D01*
X168847500Y-138393750D01*
X168848674Y-138369858D01*
X168852184Y-138346197D01*
X168857996Y-138322993D01*
X168866054Y-138300471D01*
X168876282Y-138278847D01*
X168888579Y-138258330D01*
X168902829Y-138239117D01*
X168918893Y-138221393D01*
X168936617Y-138205329D01*
X168955830Y-138191079D01*
X168976347Y-138178782D01*
X168997971Y-138168554D01*
X169020493Y-138160496D01*
X169043697Y-138154684D01*
X169067358Y-138151174D01*
X169091250Y-138150000D01*
X169578750Y-138150000D01*
X169602642Y-138151174D01*
X169602642Y-138151174D01*
G37*
D11*
X169335000Y-138850000D03*
G04 #@! TD*
D10*
G04 #@! TO.C,C4*
G36*
X162482642Y-137781174D02*
X162506303Y-137784684D01*
X162529507Y-137790496D01*
X162552029Y-137798554D01*
X162573653Y-137808782D01*
X162594170Y-137821079D01*
X162613383Y-137835329D01*
X162631107Y-137851393D01*
X162647171Y-137869117D01*
X162661421Y-137888330D01*
X162673718Y-137908847D01*
X162683946Y-137930471D01*
X162692004Y-137952993D01*
X162697816Y-137976197D01*
X162701326Y-137999858D01*
X162702500Y-138023750D01*
X162702500Y-138936250D01*
X162701326Y-138960142D01*
X162697816Y-138983803D01*
X162692004Y-139007007D01*
X162683946Y-139029529D01*
X162673718Y-139051153D01*
X162661421Y-139071670D01*
X162647171Y-139090883D01*
X162631107Y-139108607D01*
X162613383Y-139124671D01*
X162594170Y-139138921D01*
X162573653Y-139151218D01*
X162552029Y-139161446D01*
X162529507Y-139169504D01*
X162506303Y-139175316D01*
X162482642Y-139178826D01*
X162458750Y-139180000D01*
X161971250Y-139180000D01*
X161947358Y-139178826D01*
X161923697Y-139175316D01*
X161900493Y-139169504D01*
X161877971Y-139161446D01*
X161856347Y-139151218D01*
X161835830Y-139138921D01*
X161816617Y-139124671D01*
X161798893Y-139108607D01*
X161782829Y-139090883D01*
X161768579Y-139071670D01*
X161756282Y-139051153D01*
X161746054Y-139029529D01*
X161737996Y-139007007D01*
X161732184Y-138983803D01*
X161728674Y-138960142D01*
X161727500Y-138936250D01*
X161727500Y-138023750D01*
X161728674Y-137999858D01*
X161732184Y-137976197D01*
X161737996Y-137952993D01*
X161746054Y-137930471D01*
X161756282Y-137908847D01*
X161768579Y-137888330D01*
X161782829Y-137869117D01*
X161798893Y-137851393D01*
X161816617Y-137835329D01*
X161835830Y-137821079D01*
X161856347Y-137808782D01*
X161877971Y-137798554D01*
X161900493Y-137790496D01*
X161923697Y-137784684D01*
X161947358Y-137781174D01*
X161971250Y-137780000D01*
X162458750Y-137780000D01*
X162482642Y-137781174D01*
X162482642Y-137781174D01*
G37*
D11*
X162215000Y-138480000D03*
D10*
G36*
X160607642Y-137781174D02*
X160631303Y-137784684D01*
X160654507Y-137790496D01*
X160677029Y-137798554D01*
X160698653Y-137808782D01*
X160719170Y-137821079D01*
X160738383Y-137835329D01*
X160756107Y-137851393D01*
X160772171Y-137869117D01*
X160786421Y-137888330D01*
X160798718Y-137908847D01*
X160808946Y-137930471D01*
X160817004Y-137952993D01*
X160822816Y-137976197D01*
X160826326Y-137999858D01*
X160827500Y-138023750D01*
X160827500Y-138936250D01*
X160826326Y-138960142D01*
X160822816Y-138983803D01*
X160817004Y-139007007D01*
X160808946Y-139029529D01*
X160798718Y-139051153D01*
X160786421Y-139071670D01*
X160772171Y-139090883D01*
X160756107Y-139108607D01*
X160738383Y-139124671D01*
X160719170Y-139138921D01*
X160698653Y-139151218D01*
X160677029Y-139161446D01*
X160654507Y-139169504D01*
X160631303Y-139175316D01*
X160607642Y-139178826D01*
X160583750Y-139180000D01*
X160096250Y-139180000D01*
X160072358Y-139178826D01*
X160048697Y-139175316D01*
X160025493Y-139169504D01*
X160002971Y-139161446D01*
X159981347Y-139151218D01*
X159960830Y-139138921D01*
X159941617Y-139124671D01*
X159923893Y-139108607D01*
X159907829Y-139090883D01*
X159893579Y-139071670D01*
X159881282Y-139051153D01*
X159871054Y-139029529D01*
X159862996Y-139007007D01*
X159857184Y-138983803D01*
X159853674Y-138960142D01*
X159852500Y-138936250D01*
X159852500Y-138023750D01*
X159853674Y-137999858D01*
X159857184Y-137976197D01*
X159862996Y-137952993D01*
X159871054Y-137930471D01*
X159881282Y-137908847D01*
X159893579Y-137888330D01*
X159907829Y-137869117D01*
X159923893Y-137851393D01*
X159941617Y-137835329D01*
X159960830Y-137821079D01*
X159981347Y-137808782D01*
X160002971Y-137798554D01*
X160025493Y-137790496D01*
X160048697Y-137784684D01*
X160072358Y-137781174D01*
X160096250Y-137780000D01*
X160583750Y-137780000D01*
X160607642Y-137781174D01*
X160607642Y-137781174D01*
G37*
D11*
X160340000Y-138480000D03*
G04 #@! TD*
D10*
G04 #@! TO.C,C12*
G36*
X163802142Y-99686674D02*
X163825803Y-99690184D01*
X163849007Y-99695996D01*
X163871529Y-99704054D01*
X163893153Y-99714282D01*
X163913670Y-99726579D01*
X163932883Y-99740829D01*
X163950607Y-99756893D01*
X163966671Y-99774617D01*
X163980921Y-99793830D01*
X163993218Y-99814347D01*
X164003446Y-99835971D01*
X164011504Y-99858493D01*
X164017316Y-99881697D01*
X164020826Y-99905358D01*
X164022000Y-99929250D01*
X164022000Y-100416750D01*
X164020826Y-100440642D01*
X164017316Y-100464303D01*
X164011504Y-100487507D01*
X164003446Y-100510029D01*
X163993218Y-100531653D01*
X163980921Y-100552170D01*
X163966671Y-100571383D01*
X163950607Y-100589107D01*
X163932883Y-100605171D01*
X163913670Y-100619421D01*
X163893153Y-100631718D01*
X163871529Y-100641946D01*
X163849007Y-100650004D01*
X163825803Y-100655816D01*
X163802142Y-100659326D01*
X163778250Y-100660500D01*
X162865750Y-100660500D01*
X162841858Y-100659326D01*
X162818197Y-100655816D01*
X162794993Y-100650004D01*
X162772471Y-100641946D01*
X162750847Y-100631718D01*
X162730330Y-100619421D01*
X162711117Y-100605171D01*
X162693393Y-100589107D01*
X162677329Y-100571383D01*
X162663079Y-100552170D01*
X162650782Y-100531653D01*
X162640554Y-100510029D01*
X162632496Y-100487507D01*
X162626684Y-100464303D01*
X162623174Y-100440642D01*
X162622000Y-100416750D01*
X162622000Y-99929250D01*
X162623174Y-99905358D01*
X162626684Y-99881697D01*
X162632496Y-99858493D01*
X162640554Y-99835971D01*
X162650782Y-99814347D01*
X162663079Y-99793830D01*
X162677329Y-99774617D01*
X162693393Y-99756893D01*
X162711117Y-99740829D01*
X162730330Y-99726579D01*
X162750847Y-99714282D01*
X162772471Y-99704054D01*
X162794993Y-99695996D01*
X162818197Y-99690184D01*
X162841858Y-99686674D01*
X162865750Y-99685500D01*
X163778250Y-99685500D01*
X163802142Y-99686674D01*
X163802142Y-99686674D01*
G37*
D11*
X163322000Y-100173000D03*
D10*
G36*
X163802142Y-97811674D02*
X163825803Y-97815184D01*
X163849007Y-97820996D01*
X163871529Y-97829054D01*
X163893153Y-97839282D01*
X163913670Y-97851579D01*
X163932883Y-97865829D01*
X163950607Y-97881893D01*
X163966671Y-97899617D01*
X163980921Y-97918830D01*
X163993218Y-97939347D01*
X164003446Y-97960971D01*
X164011504Y-97983493D01*
X164017316Y-98006697D01*
X164020826Y-98030358D01*
X164022000Y-98054250D01*
X164022000Y-98541750D01*
X164020826Y-98565642D01*
X164017316Y-98589303D01*
X164011504Y-98612507D01*
X164003446Y-98635029D01*
X163993218Y-98656653D01*
X163980921Y-98677170D01*
X163966671Y-98696383D01*
X163950607Y-98714107D01*
X163932883Y-98730171D01*
X163913670Y-98744421D01*
X163893153Y-98756718D01*
X163871529Y-98766946D01*
X163849007Y-98775004D01*
X163825803Y-98780816D01*
X163802142Y-98784326D01*
X163778250Y-98785500D01*
X162865750Y-98785500D01*
X162841858Y-98784326D01*
X162818197Y-98780816D01*
X162794993Y-98775004D01*
X162772471Y-98766946D01*
X162750847Y-98756718D01*
X162730330Y-98744421D01*
X162711117Y-98730171D01*
X162693393Y-98714107D01*
X162677329Y-98696383D01*
X162663079Y-98677170D01*
X162650782Y-98656653D01*
X162640554Y-98635029D01*
X162632496Y-98612507D01*
X162626684Y-98589303D01*
X162623174Y-98565642D01*
X162622000Y-98541750D01*
X162622000Y-98054250D01*
X162623174Y-98030358D01*
X162626684Y-98006697D01*
X162632496Y-97983493D01*
X162640554Y-97960971D01*
X162650782Y-97939347D01*
X162663079Y-97918830D01*
X162677329Y-97899617D01*
X162693393Y-97881893D01*
X162711117Y-97865829D01*
X162730330Y-97851579D01*
X162750847Y-97839282D01*
X162772471Y-97829054D01*
X162794993Y-97820996D01*
X162818197Y-97815184D01*
X162841858Y-97811674D01*
X162865750Y-97810500D01*
X163778250Y-97810500D01*
X163802142Y-97811674D01*
X163802142Y-97811674D01*
G37*
D11*
X163322000Y-98298000D03*
G04 #@! TD*
D10*
G04 #@! TO.C,C15*
G36*
X175015142Y-138151174D02*
X175038803Y-138154684D01*
X175062007Y-138160496D01*
X175084529Y-138168554D01*
X175106153Y-138178782D01*
X175126670Y-138191079D01*
X175145883Y-138205329D01*
X175163607Y-138221393D01*
X175179671Y-138239117D01*
X175193921Y-138258330D01*
X175206218Y-138278847D01*
X175216446Y-138300471D01*
X175224504Y-138322993D01*
X175230316Y-138346197D01*
X175233826Y-138369858D01*
X175235000Y-138393750D01*
X175235000Y-139306250D01*
X175233826Y-139330142D01*
X175230316Y-139353803D01*
X175224504Y-139377007D01*
X175216446Y-139399529D01*
X175206218Y-139421153D01*
X175193921Y-139441670D01*
X175179671Y-139460883D01*
X175163607Y-139478607D01*
X175145883Y-139494671D01*
X175126670Y-139508921D01*
X175106153Y-139521218D01*
X175084529Y-139531446D01*
X175062007Y-139539504D01*
X175038803Y-139545316D01*
X175015142Y-139548826D01*
X174991250Y-139550000D01*
X174503750Y-139550000D01*
X174479858Y-139548826D01*
X174456197Y-139545316D01*
X174432993Y-139539504D01*
X174410471Y-139531446D01*
X174388847Y-139521218D01*
X174368330Y-139508921D01*
X174349117Y-139494671D01*
X174331393Y-139478607D01*
X174315329Y-139460883D01*
X174301079Y-139441670D01*
X174288782Y-139421153D01*
X174278554Y-139399529D01*
X174270496Y-139377007D01*
X174264684Y-139353803D01*
X174261174Y-139330142D01*
X174260000Y-139306250D01*
X174260000Y-138393750D01*
X174261174Y-138369858D01*
X174264684Y-138346197D01*
X174270496Y-138322993D01*
X174278554Y-138300471D01*
X174288782Y-138278847D01*
X174301079Y-138258330D01*
X174315329Y-138239117D01*
X174331393Y-138221393D01*
X174349117Y-138205329D01*
X174368330Y-138191079D01*
X174388847Y-138178782D01*
X174410471Y-138168554D01*
X174432993Y-138160496D01*
X174456197Y-138154684D01*
X174479858Y-138151174D01*
X174503750Y-138150000D01*
X174991250Y-138150000D01*
X175015142Y-138151174D01*
X175015142Y-138151174D01*
G37*
D11*
X174747500Y-138850000D03*
D10*
G36*
X173140142Y-138151174D02*
X173163803Y-138154684D01*
X173187007Y-138160496D01*
X173209529Y-138168554D01*
X173231153Y-138178782D01*
X173251670Y-138191079D01*
X173270883Y-138205329D01*
X173288607Y-138221393D01*
X173304671Y-138239117D01*
X173318921Y-138258330D01*
X173331218Y-138278847D01*
X173341446Y-138300471D01*
X173349504Y-138322993D01*
X173355316Y-138346197D01*
X173358826Y-138369858D01*
X173360000Y-138393750D01*
X173360000Y-139306250D01*
X173358826Y-139330142D01*
X173355316Y-139353803D01*
X173349504Y-139377007D01*
X173341446Y-139399529D01*
X173331218Y-139421153D01*
X173318921Y-139441670D01*
X173304671Y-139460883D01*
X173288607Y-139478607D01*
X173270883Y-139494671D01*
X173251670Y-139508921D01*
X173231153Y-139521218D01*
X173209529Y-139531446D01*
X173187007Y-139539504D01*
X173163803Y-139545316D01*
X173140142Y-139548826D01*
X173116250Y-139550000D01*
X172628750Y-139550000D01*
X172604858Y-139548826D01*
X172581197Y-139545316D01*
X172557993Y-139539504D01*
X172535471Y-139531446D01*
X172513847Y-139521218D01*
X172493330Y-139508921D01*
X172474117Y-139494671D01*
X172456393Y-139478607D01*
X172440329Y-139460883D01*
X172426079Y-139441670D01*
X172413782Y-139421153D01*
X172403554Y-139399529D01*
X172395496Y-139377007D01*
X172389684Y-139353803D01*
X172386174Y-139330142D01*
X172385000Y-139306250D01*
X172385000Y-138393750D01*
X172386174Y-138369858D01*
X172389684Y-138346197D01*
X172395496Y-138322993D01*
X172403554Y-138300471D01*
X172413782Y-138278847D01*
X172426079Y-138258330D01*
X172440329Y-138239117D01*
X172456393Y-138221393D01*
X172474117Y-138205329D01*
X172493330Y-138191079D01*
X172513847Y-138178782D01*
X172535471Y-138168554D01*
X172557993Y-138160496D01*
X172581197Y-138154684D01*
X172604858Y-138151174D01*
X172628750Y-138150000D01*
X173116250Y-138150000D01*
X173140142Y-138151174D01*
X173140142Y-138151174D01*
G37*
D11*
X172872500Y-138850000D03*
G04 #@! TD*
D10*
G04 #@! TO.C,C16*
G36*
X165490142Y-133823674D02*
X165513803Y-133827184D01*
X165537007Y-133832996D01*
X165559529Y-133841054D01*
X165581153Y-133851282D01*
X165601670Y-133863579D01*
X165620883Y-133877829D01*
X165638607Y-133893893D01*
X165654671Y-133911617D01*
X165668921Y-133930830D01*
X165681218Y-133951347D01*
X165691446Y-133972971D01*
X165699504Y-133995493D01*
X165705316Y-134018697D01*
X165708826Y-134042358D01*
X165710000Y-134066250D01*
X165710000Y-134553750D01*
X165708826Y-134577642D01*
X165705316Y-134601303D01*
X165699504Y-134624507D01*
X165691446Y-134647029D01*
X165681218Y-134668653D01*
X165668921Y-134689170D01*
X165654671Y-134708383D01*
X165638607Y-134726107D01*
X165620883Y-134742171D01*
X165601670Y-134756421D01*
X165581153Y-134768718D01*
X165559529Y-134778946D01*
X165537007Y-134787004D01*
X165513803Y-134792816D01*
X165490142Y-134796326D01*
X165466250Y-134797500D01*
X164553750Y-134797500D01*
X164529858Y-134796326D01*
X164506197Y-134792816D01*
X164482993Y-134787004D01*
X164460471Y-134778946D01*
X164438847Y-134768718D01*
X164418330Y-134756421D01*
X164399117Y-134742171D01*
X164381393Y-134726107D01*
X164365329Y-134708383D01*
X164351079Y-134689170D01*
X164338782Y-134668653D01*
X164328554Y-134647029D01*
X164320496Y-134624507D01*
X164314684Y-134601303D01*
X164311174Y-134577642D01*
X164310000Y-134553750D01*
X164310000Y-134066250D01*
X164311174Y-134042358D01*
X164314684Y-134018697D01*
X164320496Y-133995493D01*
X164328554Y-133972971D01*
X164338782Y-133951347D01*
X164351079Y-133930830D01*
X164365329Y-133911617D01*
X164381393Y-133893893D01*
X164399117Y-133877829D01*
X164418330Y-133863579D01*
X164438847Y-133851282D01*
X164460471Y-133841054D01*
X164482993Y-133832996D01*
X164506197Y-133827184D01*
X164529858Y-133823674D01*
X164553750Y-133822500D01*
X165466250Y-133822500D01*
X165490142Y-133823674D01*
X165490142Y-133823674D01*
G37*
D11*
X165010000Y-134310000D03*
D10*
G36*
X165490142Y-131948674D02*
X165513803Y-131952184D01*
X165537007Y-131957996D01*
X165559529Y-131966054D01*
X165581153Y-131976282D01*
X165601670Y-131988579D01*
X165620883Y-132002829D01*
X165638607Y-132018893D01*
X165654671Y-132036617D01*
X165668921Y-132055830D01*
X165681218Y-132076347D01*
X165691446Y-132097971D01*
X165699504Y-132120493D01*
X165705316Y-132143697D01*
X165708826Y-132167358D01*
X165710000Y-132191250D01*
X165710000Y-132678750D01*
X165708826Y-132702642D01*
X165705316Y-132726303D01*
X165699504Y-132749507D01*
X165691446Y-132772029D01*
X165681218Y-132793653D01*
X165668921Y-132814170D01*
X165654671Y-132833383D01*
X165638607Y-132851107D01*
X165620883Y-132867171D01*
X165601670Y-132881421D01*
X165581153Y-132893718D01*
X165559529Y-132903946D01*
X165537007Y-132912004D01*
X165513803Y-132917816D01*
X165490142Y-132921326D01*
X165466250Y-132922500D01*
X164553750Y-132922500D01*
X164529858Y-132921326D01*
X164506197Y-132917816D01*
X164482993Y-132912004D01*
X164460471Y-132903946D01*
X164438847Y-132893718D01*
X164418330Y-132881421D01*
X164399117Y-132867171D01*
X164381393Y-132851107D01*
X164365329Y-132833383D01*
X164351079Y-132814170D01*
X164338782Y-132793653D01*
X164328554Y-132772029D01*
X164320496Y-132749507D01*
X164314684Y-132726303D01*
X164311174Y-132702642D01*
X164310000Y-132678750D01*
X164310000Y-132191250D01*
X164311174Y-132167358D01*
X164314684Y-132143697D01*
X164320496Y-132120493D01*
X164328554Y-132097971D01*
X164338782Y-132076347D01*
X164351079Y-132055830D01*
X164365329Y-132036617D01*
X164381393Y-132018893D01*
X164399117Y-132002829D01*
X164418330Y-131988579D01*
X164438847Y-131976282D01*
X164460471Y-131966054D01*
X164482993Y-131957996D01*
X164506197Y-131952184D01*
X164529858Y-131948674D01*
X164553750Y-131947500D01*
X165466250Y-131947500D01*
X165490142Y-131948674D01*
X165490142Y-131948674D01*
G37*
D11*
X165010000Y-132435000D03*
G04 #@! TD*
D10*
G04 #@! TO.C,D1*
G36*
X164270142Y-115873674D02*
X164293803Y-115877184D01*
X164317007Y-115882996D01*
X164339529Y-115891054D01*
X164361153Y-115901282D01*
X164381670Y-115913579D01*
X164400883Y-115927829D01*
X164418607Y-115943893D01*
X164434671Y-115961617D01*
X164448921Y-115980830D01*
X164461218Y-116001347D01*
X164471446Y-116022971D01*
X164479504Y-116045493D01*
X164485316Y-116068697D01*
X164488826Y-116092358D01*
X164490000Y-116116250D01*
X164490000Y-116603750D01*
X164488826Y-116627642D01*
X164485316Y-116651303D01*
X164479504Y-116674507D01*
X164471446Y-116697029D01*
X164461218Y-116718653D01*
X164448921Y-116739170D01*
X164434671Y-116758383D01*
X164418607Y-116776107D01*
X164400883Y-116792171D01*
X164381670Y-116806421D01*
X164361153Y-116818718D01*
X164339529Y-116828946D01*
X164317007Y-116837004D01*
X164293803Y-116842816D01*
X164270142Y-116846326D01*
X164246250Y-116847500D01*
X163333750Y-116847500D01*
X163309858Y-116846326D01*
X163286197Y-116842816D01*
X163262993Y-116837004D01*
X163240471Y-116828946D01*
X163218847Y-116818718D01*
X163198330Y-116806421D01*
X163179117Y-116792171D01*
X163161393Y-116776107D01*
X163145329Y-116758383D01*
X163131079Y-116739170D01*
X163118782Y-116718653D01*
X163108554Y-116697029D01*
X163100496Y-116674507D01*
X163094684Y-116651303D01*
X163091174Y-116627642D01*
X163090000Y-116603750D01*
X163090000Y-116116250D01*
X163091174Y-116092358D01*
X163094684Y-116068697D01*
X163100496Y-116045493D01*
X163108554Y-116022971D01*
X163118782Y-116001347D01*
X163131079Y-115980830D01*
X163145329Y-115961617D01*
X163161393Y-115943893D01*
X163179117Y-115927829D01*
X163198330Y-115913579D01*
X163218847Y-115901282D01*
X163240471Y-115891054D01*
X163262993Y-115882996D01*
X163286197Y-115877184D01*
X163309858Y-115873674D01*
X163333750Y-115872500D01*
X164246250Y-115872500D01*
X164270142Y-115873674D01*
X164270142Y-115873674D01*
G37*
D11*
X163790000Y-116360000D03*
D10*
G36*
X164270142Y-113998674D02*
X164293803Y-114002184D01*
X164317007Y-114007996D01*
X164339529Y-114016054D01*
X164361153Y-114026282D01*
X164381670Y-114038579D01*
X164400883Y-114052829D01*
X164418607Y-114068893D01*
X164434671Y-114086617D01*
X164448921Y-114105830D01*
X164461218Y-114126347D01*
X164471446Y-114147971D01*
X164479504Y-114170493D01*
X164485316Y-114193697D01*
X164488826Y-114217358D01*
X164490000Y-114241250D01*
X164490000Y-114728750D01*
X164488826Y-114752642D01*
X164485316Y-114776303D01*
X164479504Y-114799507D01*
X164471446Y-114822029D01*
X164461218Y-114843653D01*
X164448921Y-114864170D01*
X164434671Y-114883383D01*
X164418607Y-114901107D01*
X164400883Y-114917171D01*
X164381670Y-114931421D01*
X164361153Y-114943718D01*
X164339529Y-114953946D01*
X164317007Y-114962004D01*
X164293803Y-114967816D01*
X164270142Y-114971326D01*
X164246250Y-114972500D01*
X163333750Y-114972500D01*
X163309858Y-114971326D01*
X163286197Y-114967816D01*
X163262993Y-114962004D01*
X163240471Y-114953946D01*
X163218847Y-114943718D01*
X163198330Y-114931421D01*
X163179117Y-114917171D01*
X163161393Y-114901107D01*
X163145329Y-114883383D01*
X163131079Y-114864170D01*
X163118782Y-114843653D01*
X163108554Y-114822029D01*
X163100496Y-114799507D01*
X163094684Y-114776303D01*
X163091174Y-114752642D01*
X163090000Y-114728750D01*
X163090000Y-114241250D01*
X163091174Y-114217358D01*
X163094684Y-114193697D01*
X163100496Y-114170493D01*
X163108554Y-114147971D01*
X163118782Y-114126347D01*
X163131079Y-114105830D01*
X163145329Y-114086617D01*
X163161393Y-114068893D01*
X163179117Y-114052829D01*
X163198330Y-114038579D01*
X163218847Y-114026282D01*
X163240471Y-114016054D01*
X163262993Y-114007996D01*
X163286197Y-114002184D01*
X163309858Y-113998674D01*
X163333750Y-113997500D01*
X164246250Y-113997500D01*
X164270142Y-113998674D01*
X164270142Y-113998674D01*
G37*
D11*
X163790000Y-114485000D03*
G04 #@! TD*
D10*
G04 #@! TO.C,D2*
G36*
X165060142Y-89833674D02*
X165083803Y-89837184D01*
X165107007Y-89842996D01*
X165129529Y-89851054D01*
X165151153Y-89861282D01*
X165171670Y-89873579D01*
X165190883Y-89887829D01*
X165208607Y-89903893D01*
X165224671Y-89921617D01*
X165238921Y-89940830D01*
X165251218Y-89961347D01*
X165261446Y-89982971D01*
X165269504Y-90005493D01*
X165275316Y-90028697D01*
X165278826Y-90052358D01*
X165280000Y-90076250D01*
X165280000Y-90563750D01*
X165278826Y-90587642D01*
X165275316Y-90611303D01*
X165269504Y-90634507D01*
X165261446Y-90657029D01*
X165251218Y-90678653D01*
X165238921Y-90699170D01*
X165224671Y-90718383D01*
X165208607Y-90736107D01*
X165190883Y-90752171D01*
X165171670Y-90766421D01*
X165151153Y-90778718D01*
X165129529Y-90788946D01*
X165107007Y-90797004D01*
X165083803Y-90802816D01*
X165060142Y-90806326D01*
X165036250Y-90807500D01*
X164123750Y-90807500D01*
X164099858Y-90806326D01*
X164076197Y-90802816D01*
X164052993Y-90797004D01*
X164030471Y-90788946D01*
X164008847Y-90778718D01*
X163988330Y-90766421D01*
X163969117Y-90752171D01*
X163951393Y-90736107D01*
X163935329Y-90718383D01*
X163921079Y-90699170D01*
X163908782Y-90678653D01*
X163898554Y-90657029D01*
X163890496Y-90634507D01*
X163884684Y-90611303D01*
X163881174Y-90587642D01*
X163880000Y-90563750D01*
X163880000Y-90076250D01*
X163881174Y-90052358D01*
X163884684Y-90028697D01*
X163890496Y-90005493D01*
X163898554Y-89982971D01*
X163908782Y-89961347D01*
X163921079Y-89940830D01*
X163935329Y-89921617D01*
X163951393Y-89903893D01*
X163969117Y-89887829D01*
X163988330Y-89873579D01*
X164008847Y-89861282D01*
X164030471Y-89851054D01*
X164052993Y-89842996D01*
X164076197Y-89837184D01*
X164099858Y-89833674D01*
X164123750Y-89832500D01*
X165036250Y-89832500D01*
X165060142Y-89833674D01*
X165060142Y-89833674D01*
G37*
D11*
X164580000Y-90320000D03*
D10*
G36*
X165060142Y-87958674D02*
X165083803Y-87962184D01*
X165107007Y-87967996D01*
X165129529Y-87976054D01*
X165151153Y-87986282D01*
X165171670Y-87998579D01*
X165190883Y-88012829D01*
X165208607Y-88028893D01*
X165224671Y-88046617D01*
X165238921Y-88065830D01*
X165251218Y-88086347D01*
X165261446Y-88107971D01*
X165269504Y-88130493D01*
X165275316Y-88153697D01*
X165278826Y-88177358D01*
X165280000Y-88201250D01*
X165280000Y-88688750D01*
X165278826Y-88712642D01*
X165275316Y-88736303D01*
X165269504Y-88759507D01*
X165261446Y-88782029D01*
X165251218Y-88803653D01*
X165238921Y-88824170D01*
X165224671Y-88843383D01*
X165208607Y-88861107D01*
X165190883Y-88877171D01*
X165171670Y-88891421D01*
X165151153Y-88903718D01*
X165129529Y-88913946D01*
X165107007Y-88922004D01*
X165083803Y-88927816D01*
X165060142Y-88931326D01*
X165036250Y-88932500D01*
X164123750Y-88932500D01*
X164099858Y-88931326D01*
X164076197Y-88927816D01*
X164052993Y-88922004D01*
X164030471Y-88913946D01*
X164008847Y-88903718D01*
X163988330Y-88891421D01*
X163969117Y-88877171D01*
X163951393Y-88861107D01*
X163935329Y-88843383D01*
X163921079Y-88824170D01*
X163908782Y-88803653D01*
X163898554Y-88782029D01*
X163890496Y-88759507D01*
X163884684Y-88736303D01*
X163881174Y-88712642D01*
X163880000Y-88688750D01*
X163880000Y-88201250D01*
X163881174Y-88177358D01*
X163884684Y-88153697D01*
X163890496Y-88130493D01*
X163898554Y-88107971D01*
X163908782Y-88086347D01*
X163921079Y-88065830D01*
X163935329Y-88046617D01*
X163951393Y-88028893D01*
X163969117Y-88012829D01*
X163988330Y-87998579D01*
X164008847Y-87986282D01*
X164030471Y-87976054D01*
X164052993Y-87967996D01*
X164076197Y-87962184D01*
X164099858Y-87958674D01*
X164123750Y-87957500D01*
X165036250Y-87957500D01*
X165060142Y-87958674D01*
X165060142Y-87958674D01*
G37*
D11*
X164580000Y-88445000D03*
G04 #@! TD*
D12*
G04 #@! TO.C,J1*
X159015000Y-90615000D03*
D13*
X162165000Y-93750000D03*
X162165000Y-93100000D03*
X162165000Y-92450000D03*
X162165000Y-91800000D03*
X162165000Y-91150000D03*
D12*
X159015000Y-94300000D03*
G04 #@! TD*
D10*
G04 #@! TO.C,R1*
G36*
X160927691Y-114068553D02*
X160948926Y-114071703D01*
X160969750Y-114076919D01*
X160989962Y-114084151D01*
X161009368Y-114093330D01*
X161027781Y-114104366D01*
X161045024Y-114117154D01*
X161060930Y-114131570D01*
X161075346Y-114147476D01*
X161088134Y-114164719D01*
X161099170Y-114183132D01*
X161108349Y-114202538D01*
X161115581Y-114222750D01*
X161120797Y-114243574D01*
X161123947Y-114264809D01*
X161125000Y-114286250D01*
X161125000Y-114723750D01*
X161123947Y-114745191D01*
X161120797Y-114766426D01*
X161115581Y-114787250D01*
X161108349Y-114807462D01*
X161099170Y-114826868D01*
X161088134Y-114845281D01*
X161075346Y-114862524D01*
X161060930Y-114878430D01*
X161045024Y-114892846D01*
X161027781Y-114905634D01*
X161009368Y-114916670D01*
X160989962Y-114925849D01*
X160969750Y-114933081D01*
X160948926Y-114938297D01*
X160927691Y-114941447D01*
X160906250Y-114942500D01*
X160393750Y-114942500D01*
X160372309Y-114941447D01*
X160351074Y-114938297D01*
X160330250Y-114933081D01*
X160310038Y-114925849D01*
X160290632Y-114916670D01*
X160272219Y-114905634D01*
X160254976Y-114892846D01*
X160239070Y-114878430D01*
X160224654Y-114862524D01*
X160211866Y-114845281D01*
X160200830Y-114826868D01*
X160191651Y-114807462D01*
X160184419Y-114787250D01*
X160179203Y-114766426D01*
X160176053Y-114745191D01*
X160175000Y-114723750D01*
X160175000Y-114286250D01*
X160176053Y-114264809D01*
X160179203Y-114243574D01*
X160184419Y-114222750D01*
X160191651Y-114202538D01*
X160200830Y-114183132D01*
X160211866Y-114164719D01*
X160224654Y-114147476D01*
X160239070Y-114131570D01*
X160254976Y-114117154D01*
X160272219Y-114104366D01*
X160290632Y-114093330D01*
X160310038Y-114084151D01*
X160330250Y-114076919D01*
X160351074Y-114071703D01*
X160372309Y-114068553D01*
X160393750Y-114067500D01*
X160906250Y-114067500D01*
X160927691Y-114068553D01*
X160927691Y-114068553D01*
G37*
D14*
X160650000Y-114505000D03*
D10*
G36*
X160927691Y-115643553D02*
X160948926Y-115646703D01*
X160969750Y-115651919D01*
X160989962Y-115659151D01*
X161009368Y-115668330D01*
X161027781Y-115679366D01*
X161045024Y-115692154D01*
X161060930Y-115706570D01*
X161075346Y-115722476D01*
X161088134Y-115739719D01*
X161099170Y-115758132D01*
X161108349Y-115777538D01*
X161115581Y-115797750D01*
X161120797Y-115818574D01*
X161123947Y-115839809D01*
X161125000Y-115861250D01*
X161125000Y-116298750D01*
X161123947Y-116320191D01*
X161120797Y-116341426D01*
X161115581Y-116362250D01*
X161108349Y-116382462D01*
X161099170Y-116401868D01*
X161088134Y-116420281D01*
X161075346Y-116437524D01*
X161060930Y-116453430D01*
X161045024Y-116467846D01*
X161027781Y-116480634D01*
X161009368Y-116491670D01*
X160989962Y-116500849D01*
X160969750Y-116508081D01*
X160948926Y-116513297D01*
X160927691Y-116516447D01*
X160906250Y-116517500D01*
X160393750Y-116517500D01*
X160372309Y-116516447D01*
X160351074Y-116513297D01*
X160330250Y-116508081D01*
X160310038Y-116500849D01*
X160290632Y-116491670D01*
X160272219Y-116480634D01*
X160254976Y-116467846D01*
X160239070Y-116453430D01*
X160224654Y-116437524D01*
X160211866Y-116420281D01*
X160200830Y-116401868D01*
X160191651Y-116382462D01*
X160184419Y-116362250D01*
X160179203Y-116341426D01*
X160176053Y-116320191D01*
X160175000Y-116298750D01*
X160175000Y-115861250D01*
X160176053Y-115839809D01*
X160179203Y-115818574D01*
X160184419Y-115797750D01*
X160191651Y-115777538D01*
X160200830Y-115758132D01*
X160211866Y-115739719D01*
X160224654Y-115722476D01*
X160239070Y-115706570D01*
X160254976Y-115692154D01*
X160272219Y-115679366D01*
X160290632Y-115668330D01*
X160310038Y-115659151D01*
X160330250Y-115651919D01*
X160351074Y-115646703D01*
X160372309Y-115643553D01*
X160393750Y-115642500D01*
X160906250Y-115642500D01*
X160927691Y-115643553D01*
X160927691Y-115643553D01*
G37*
D14*
X160650000Y-116080000D03*
G04 #@! TD*
D10*
G04 #@! TO.C,R2*
G36*
X177325191Y-128346053D02*
X177346426Y-128349203D01*
X177367250Y-128354419D01*
X177387462Y-128361651D01*
X177406868Y-128370830D01*
X177425281Y-128381866D01*
X177442524Y-128394654D01*
X177458430Y-128409070D01*
X177472846Y-128424976D01*
X177485634Y-128442219D01*
X177496670Y-128460632D01*
X177505849Y-128480038D01*
X177513081Y-128500250D01*
X177518297Y-128521074D01*
X177521447Y-128542309D01*
X177522500Y-128563750D01*
X177522500Y-129076250D01*
X177521447Y-129097691D01*
X177518297Y-129118926D01*
X177513081Y-129139750D01*
X177505849Y-129159962D01*
X177496670Y-129179368D01*
X177485634Y-129197781D01*
X177472846Y-129215024D01*
X177458430Y-129230930D01*
X177442524Y-129245346D01*
X177425281Y-129258134D01*
X177406868Y-129269170D01*
X177387462Y-129278349D01*
X177367250Y-129285581D01*
X177346426Y-129290797D01*
X177325191Y-129293947D01*
X177303750Y-129295000D01*
X176866250Y-129295000D01*
X176844809Y-129293947D01*
X176823574Y-129290797D01*
X176802750Y-129285581D01*
X176782538Y-129278349D01*
X176763132Y-129269170D01*
X176744719Y-129258134D01*
X176727476Y-129245346D01*
X176711570Y-129230930D01*
X176697154Y-129215024D01*
X176684366Y-129197781D01*
X176673330Y-129179368D01*
X176664151Y-129159962D01*
X176656919Y-129139750D01*
X176651703Y-129118926D01*
X176648553Y-129097691D01*
X176647500Y-129076250D01*
X176647500Y-128563750D01*
X176648553Y-128542309D01*
X176651703Y-128521074D01*
X176656919Y-128500250D01*
X176664151Y-128480038D01*
X176673330Y-128460632D01*
X176684366Y-128442219D01*
X176697154Y-128424976D01*
X176711570Y-128409070D01*
X176727476Y-128394654D01*
X176744719Y-128381866D01*
X176763132Y-128370830D01*
X176782538Y-128361651D01*
X176802750Y-128354419D01*
X176823574Y-128349203D01*
X176844809Y-128346053D01*
X176866250Y-128345000D01*
X177303750Y-128345000D01*
X177325191Y-128346053D01*
X177325191Y-128346053D01*
G37*
D14*
X177085000Y-128820000D03*
D10*
G36*
X175750191Y-128346053D02*
X175771426Y-128349203D01*
X175792250Y-128354419D01*
X175812462Y-128361651D01*
X175831868Y-128370830D01*
X175850281Y-128381866D01*
X175867524Y-128394654D01*
X175883430Y-128409070D01*
X175897846Y-128424976D01*
X175910634Y-128442219D01*
X175921670Y-128460632D01*
X175930849Y-128480038D01*
X175938081Y-128500250D01*
X175943297Y-128521074D01*
X175946447Y-128542309D01*
X175947500Y-128563750D01*
X175947500Y-129076250D01*
X175946447Y-129097691D01*
X175943297Y-129118926D01*
X175938081Y-129139750D01*
X175930849Y-129159962D01*
X175921670Y-129179368D01*
X175910634Y-129197781D01*
X175897846Y-129215024D01*
X175883430Y-129230930D01*
X175867524Y-129245346D01*
X175850281Y-129258134D01*
X175831868Y-129269170D01*
X175812462Y-129278349D01*
X175792250Y-129285581D01*
X175771426Y-129290797D01*
X175750191Y-129293947D01*
X175728750Y-129295000D01*
X175291250Y-129295000D01*
X175269809Y-129293947D01*
X175248574Y-129290797D01*
X175227750Y-129285581D01*
X175207538Y-129278349D01*
X175188132Y-129269170D01*
X175169719Y-129258134D01*
X175152476Y-129245346D01*
X175136570Y-129230930D01*
X175122154Y-129215024D01*
X175109366Y-129197781D01*
X175098330Y-129179368D01*
X175089151Y-129159962D01*
X175081919Y-129139750D01*
X175076703Y-129118926D01*
X175073553Y-129097691D01*
X175072500Y-129076250D01*
X175072500Y-128563750D01*
X175073553Y-128542309D01*
X175076703Y-128521074D01*
X175081919Y-128500250D01*
X175089151Y-128480038D01*
X175098330Y-128460632D01*
X175109366Y-128442219D01*
X175122154Y-128424976D01*
X175136570Y-128409070D01*
X175152476Y-128394654D01*
X175169719Y-128381866D01*
X175188132Y-128370830D01*
X175207538Y-128361651D01*
X175227750Y-128354419D01*
X175248574Y-128349203D01*
X175269809Y-128346053D01*
X175291250Y-128345000D01*
X175728750Y-128345000D01*
X175750191Y-128346053D01*
X175750191Y-128346053D01*
G37*
D14*
X175510000Y-128820000D03*
G04 #@! TD*
D10*
G04 #@! TO.C,R3*
G36*
X163690191Y-122646053D02*
X163711426Y-122649203D01*
X163732250Y-122654419D01*
X163752462Y-122661651D01*
X163771868Y-122670830D01*
X163790281Y-122681866D01*
X163807524Y-122694654D01*
X163823430Y-122709070D01*
X163837846Y-122724976D01*
X163850634Y-122742219D01*
X163861670Y-122760632D01*
X163870849Y-122780038D01*
X163878081Y-122800250D01*
X163883297Y-122821074D01*
X163886447Y-122842309D01*
X163887500Y-122863750D01*
X163887500Y-123376250D01*
X163886447Y-123397691D01*
X163883297Y-123418926D01*
X163878081Y-123439750D01*
X163870849Y-123459962D01*
X163861670Y-123479368D01*
X163850634Y-123497781D01*
X163837846Y-123515024D01*
X163823430Y-123530930D01*
X163807524Y-123545346D01*
X163790281Y-123558134D01*
X163771868Y-123569170D01*
X163752462Y-123578349D01*
X163732250Y-123585581D01*
X163711426Y-123590797D01*
X163690191Y-123593947D01*
X163668750Y-123595000D01*
X163231250Y-123595000D01*
X163209809Y-123593947D01*
X163188574Y-123590797D01*
X163167750Y-123585581D01*
X163147538Y-123578349D01*
X163128132Y-123569170D01*
X163109719Y-123558134D01*
X163092476Y-123545346D01*
X163076570Y-123530930D01*
X163062154Y-123515024D01*
X163049366Y-123497781D01*
X163038330Y-123479368D01*
X163029151Y-123459962D01*
X163021919Y-123439750D01*
X163016703Y-123418926D01*
X163013553Y-123397691D01*
X163012500Y-123376250D01*
X163012500Y-122863750D01*
X163013553Y-122842309D01*
X163016703Y-122821074D01*
X163021919Y-122800250D01*
X163029151Y-122780038D01*
X163038330Y-122760632D01*
X163049366Y-122742219D01*
X163062154Y-122724976D01*
X163076570Y-122709070D01*
X163092476Y-122694654D01*
X163109719Y-122681866D01*
X163128132Y-122670830D01*
X163147538Y-122661651D01*
X163167750Y-122654419D01*
X163188574Y-122649203D01*
X163209809Y-122646053D01*
X163231250Y-122645000D01*
X163668750Y-122645000D01*
X163690191Y-122646053D01*
X163690191Y-122646053D01*
G37*
D14*
X163450000Y-123120000D03*
D10*
G36*
X162115191Y-122646053D02*
X162136426Y-122649203D01*
X162157250Y-122654419D01*
X162177462Y-122661651D01*
X162196868Y-122670830D01*
X162215281Y-122681866D01*
X162232524Y-122694654D01*
X162248430Y-122709070D01*
X162262846Y-122724976D01*
X162275634Y-122742219D01*
X162286670Y-122760632D01*
X162295849Y-122780038D01*
X162303081Y-122800250D01*
X162308297Y-122821074D01*
X162311447Y-122842309D01*
X162312500Y-122863750D01*
X162312500Y-123376250D01*
X162311447Y-123397691D01*
X162308297Y-123418926D01*
X162303081Y-123439750D01*
X162295849Y-123459962D01*
X162286670Y-123479368D01*
X162275634Y-123497781D01*
X162262846Y-123515024D01*
X162248430Y-123530930D01*
X162232524Y-123545346D01*
X162215281Y-123558134D01*
X162196868Y-123569170D01*
X162177462Y-123578349D01*
X162157250Y-123585581D01*
X162136426Y-123590797D01*
X162115191Y-123593947D01*
X162093750Y-123595000D01*
X161656250Y-123595000D01*
X161634809Y-123593947D01*
X161613574Y-123590797D01*
X161592750Y-123585581D01*
X161572538Y-123578349D01*
X161553132Y-123569170D01*
X161534719Y-123558134D01*
X161517476Y-123545346D01*
X161501570Y-123530930D01*
X161487154Y-123515024D01*
X161474366Y-123497781D01*
X161463330Y-123479368D01*
X161454151Y-123459962D01*
X161446919Y-123439750D01*
X161441703Y-123418926D01*
X161438553Y-123397691D01*
X161437500Y-123376250D01*
X161437500Y-122863750D01*
X161438553Y-122842309D01*
X161441703Y-122821074D01*
X161446919Y-122800250D01*
X161454151Y-122780038D01*
X161463330Y-122760632D01*
X161474366Y-122742219D01*
X161487154Y-122724976D01*
X161501570Y-122709070D01*
X161517476Y-122694654D01*
X161534719Y-122681866D01*
X161553132Y-122670830D01*
X161572538Y-122661651D01*
X161592750Y-122654419D01*
X161613574Y-122649203D01*
X161634809Y-122646053D01*
X161656250Y-122645000D01*
X162093750Y-122645000D01*
X162115191Y-122646053D01*
X162115191Y-122646053D01*
G37*
D14*
X161875000Y-123120000D03*
G04 #@! TD*
D10*
G04 #@! TO.C,R4*
G36*
X162125191Y-124136053D02*
X162146426Y-124139203D01*
X162167250Y-124144419D01*
X162187462Y-124151651D01*
X162206868Y-124160830D01*
X162225281Y-124171866D01*
X162242524Y-124184654D01*
X162258430Y-124199070D01*
X162272846Y-124214976D01*
X162285634Y-124232219D01*
X162296670Y-124250632D01*
X162305849Y-124270038D01*
X162313081Y-124290250D01*
X162318297Y-124311074D01*
X162321447Y-124332309D01*
X162322500Y-124353750D01*
X162322500Y-124866250D01*
X162321447Y-124887691D01*
X162318297Y-124908926D01*
X162313081Y-124929750D01*
X162305849Y-124949962D01*
X162296670Y-124969368D01*
X162285634Y-124987781D01*
X162272846Y-125005024D01*
X162258430Y-125020930D01*
X162242524Y-125035346D01*
X162225281Y-125048134D01*
X162206868Y-125059170D01*
X162187462Y-125068349D01*
X162167250Y-125075581D01*
X162146426Y-125080797D01*
X162125191Y-125083947D01*
X162103750Y-125085000D01*
X161666250Y-125085000D01*
X161644809Y-125083947D01*
X161623574Y-125080797D01*
X161602750Y-125075581D01*
X161582538Y-125068349D01*
X161563132Y-125059170D01*
X161544719Y-125048134D01*
X161527476Y-125035346D01*
X161511570Y-125020930D01*
X161497154Y-125005024D01*
X161484366Y-124987781D01*
X161473330Y-124969368D01*
X161464151Y-124949962D01*
X161456919Y-124929750D01*
X161451703Y-124908926D01*
X161448553Y-124887691D01*
X161447500Y-124866250D01*
X161447500Y-124353750D01*
X161448553Y-124332309D01*
X161451703Y-124311074D01*
X161456919Y-124290250D01*
X161464151Y-124270038D01*
X161473330Y-124250632D01*
X161484366Y-124232219D01*
X161497154Y-124214976D01*
X161511570Y-124199070D01*
X161527476Y-124184654D01*
X161544719Y-124171866D01*
X161563132Y-124160830D01*
X161582538Y-124151651D01*
X161602750Y-124144419D01*
X161623574Y-124139203D01*
X161644809Y-124136053D01*
X161666250Y-124135000D01*
X162103750Y-124135000D01*
X162125191Y-124136053D01*
X162125191Y-124136053D01*
G37*
D14*
X161885000Y-124610000D03*
D10*
G36*
X163700191Y-124136053D02*
X163721426Y-124139203D01*
X163742250Y-124144419D01*
X163762462Y-124151651D01*
X163781868Y-124160830D01*
X163800281Y-124171866D01*
X163817524Y-124184654D01*
X163833430Y-124199070D01*
X163847846Y-124214976D01*
X163860634Y-124232219D01*
X163871670Y-124250632D01*
X163880849Y-124270038D01*
X163888081Y-124290250D01*
X163893297Y-124311074D01*
X163896447Y-124332309D01*
X163897500Y-124353750D01*
X163897500Y-124866250D01*
X163896447Y-124887691D01*
X163893297Y-124908926D01*
X163888081Y-124929750D01*
X163880849Y-124949962D01*
X163871670Y-124969368D01*
X163860634Y-124987781D01*
X163847846Y-125005024D01*
X163833430Y-125020930D01*
X163817524Y-125035346D01*
X163800281Y-125048134D01*
X163781868Y-125059170D01*
X163762462Y-125068349D01*
X163742250Y-125075581D01*
X163721426Y-125080797D01*
X163700191Y-125083947D01*
X163678750Y-125085000D01*
X163241250Y-125085000D01*
X163219809Y-125083947D01*
X163198574Y-125080797D01*
X163177750Y-125075581D01*
X163157538Y-125068349D01*
X163138132Y-125059170D01*
X163119719Y-125048134D01*
X163102476Y-125035346D01*
X163086570Y-125020930D01*
X163072154Y-125005024D01*
X163059366Y-124987781D01*
X163048330Y-124969368D01*
X163039151Y-124949962D01*
X163031919Y-124929750D01*
X163026703Y-124908926D01*
X163023553Y-124887691D01*
X163022500Y-124866250D01*
X163022500Y-124353750D01*
X163023553Y-124332309D01*
X163026703Y-124311074D01*
X163031919Y-124290250D01*
X163039151Y-124270038D01*
X163048330Y-124250632D01*
X163059366Y-124232219D01*
X163072154Y-124214976D01*
X163086570Y-124199070D01*
X163102476Y-124184654D01*
X163119719Y-124171866D01*
X163138132Y-124160830D01*
X163157538Y-124151651D01*
X163177750Y-124144419D01*
X163198574Y-124139203D01*
X163219809Y-124136053D01*
X163241250Y-124135000D01*
X163678750Y-124135000D01*
X163700191Y-124136053D01*
X163700191Y-124136053D01*
G37*
D14*
X163460000Y-124610000D03*
G04 #@! TD*
D15*
G04 #@! TO.C,J6*
X162814000Y-111204000D03*
X162814000Y-108204000D03*
G04 #@! TD*
D10*
G04 #@! TO.C,C9*
G36*
X162560142Y-121153674D02*
X162583803Y-121157184D01*
X162607007Y-121162996D01*
X162629529Y-121171054D01*
X162651153Y-121181282D01*
X162671670Y-121193579D01*
X162690883Y-121207829D01*
X162708607Y-121223893D01*
X162724671Y-121241617D01*
X162738921Y-121260830D01*
X162751218Y-121281347D01*
X162761446Y-121302971D01*
X162769504Y-121325493D01*
X162775316Y-121348697D01*
X162778826Y-121372358D01*
X162780000Y-121396250D01*
X162780000Y-121883750D01*
X162778826Y-121907642D01*
X162775316Y-121931303D01*
X162769504Y-121954507D01*
X162761446Y-121977029D01*
X162751218Y-121998653D01*
X162738921Y-122019170D01*
X162724671Y-122038383D01*
X162708607Y-122056107D01*
X162690883Y-122072171D01*
X162671670Y-122086421D01*
X162651153Y-122098718D01*
X162629529Y-122108946D01*
X162607007Y-122117004D01*
X162583803Y-122122816D01*
X162560142Y-122126326D01*
X162536250Y-122127500D01*
X161623750Y-122127500D01*
X161599858Y-122126326D01*
X161576197Y-122122816D01*
X161552993Y-122117004D01*
X161530471Y-122108946D01*
X161508847Y-122098718D01*
X161488330Y-122086421D01*
X161469117Y-122072171D01*
X161451393Y-122056107D01*
X161435329Y-122038383D01*
X161421079Y-122019170D01*
X161408782Y-121998653D01*
X161398554Y-121977029D01*
X161390496Y-121954507D01*
X161384684Y-121931303D01*
X161381174Y-121907642D01*
X161380000Y-121883750D01*
X161380000Y-121396250D01*
X161381174Y-121372358D01*
X161384684Y-121348697D01*
X161390496Y-121325493D01*
X161398554Y-121302971D01*
X161408782Y-121281347D01*
X161421079Y-121260830D01*
X161435329Y-121241617D01*
X161451393Y-121223893D01*
X161469117Y-121207829D01*
X161488330Y-121193579D01*
X161508847Y-121181282D01*
X161530471Y-121171054D01*
X161552993Y-121162996D01*
X161576197Y-121157184D01*
X161599858Y-121153674D01*
X161623750Y-121152500D01*
X162536250Y-121152500D01*
X162560142Y-121153674D01*
X162560142Y-121153674D01*
G37*
D11*
X162080000Y-121640000D03*
D10*
G36*
X162560142Y-119278674D02*
X162583803Y-119282184D01*
X162607007Y-119287996D01*
X162629529Y-119296054D01*
X162651153Y-119306282D01*
X162671670Y-119318579D01*
X162690883Y-119332829D01*
X162708607Y-119348893D01*
X162724671Y-119366617D01*
X162738921Y-119385830D01*
X162751218Y-119406347D01*
X162761446Y-119427971D01*
X162769504Y-119450493D01*
X162775316Y-119473697D01*
X162778826Y-119497358D01*
X162780000Y-119521250D01*
X162780000Y-120008750D01*
X162778826Y-120032642D01*
X162775316Y-120056303D01*
X162769504Y-120079507D01*
X162761446Y-120102029D01*
X162751218Y-120123653D01*
X162738921Y-120144170D01*
X162724671Y-120163383D01*
X162708607Y-120181107D01*
X162690883Y-120197171D01*
X162671670Y-120211421D01*
X162651153Y-120223718D01*
X162629529Y-120233946D01*
X162607007Y-120242004D01*
X162583803Y-120247816D01*
X162560142Y-120251326D01*
X162536250Y-120252500D01*
X161623750Y-120252500D01*
X161599858Y-120251326D01*
X161576197Y-120247816D01*
X161552993Y-120242004D01*
X161530471Y-120233946D01*
X161508847Y-120223718D01*
X161488330Y-120211421D01*
X161469117Y-120197171D01*
X161451393Y-120181107D01*
X161435329Y-120163383D01*
X161421079Y-120144170D01*
X161408782Y-120123653D01*
X161398554Y-120102029D01*
X161390496Y-120079507D01*
X161384684Y-120056303D01*
X161381174Y-120032642D01*
X161380000Y-120008750D01*
X161380000Y-119521250D01*
X161381174Y-119497358D01*
X161384684Y-119473697D01*
X161390496Y-119450493D01*
X161398554Y-119427971D01*
X161408782Y-119406347D01*
X161421079Y-119385830D01*
X161435329Y-119366617D01*
X161451393Y-119348893D01*
X161469117Y-119332829D01*
X161488330Y-119318579D01*
X161508847Y-119306282D01*
X161530471Y-119296054D01*
X161552993Y-119287996D01*
X161576197Y-119282184D01*
X161599858Y-119278674D01*
X161623750Y-119277500D01*
X162536250Y-119277500D01*
X162560142Y-119278674D01*
X162560142Y-119278674D01*
G37*
D11*
X162080000Y-119765000D03*
G04 #@! TD*
D16*
G04 #@! TO.C,U3*
X158252500Y-120300000D03*
D10*
G36*
X158590000Y-120350000D02*
X158590000Y-120500000D01*
X157915000Y-120500000D01*
X157915000Y-120100000D01*
X158340000Y-120100000D01*
X158590000Y-120350000D01*
X158590000Y-120350000D01*
G37*
D17*
X158252500Y-120800000D03*
X158252500Y-121300000D03*
D16*
X158252500Y-121800000D03*
D10*
G36*
X158590000Y-121750000D02*
X158340000Y-122000000D01*
X157915000Y-122000000D01*
X157915000Y-121600000D01*
X158590000Y-121600000D01*
X158590000Y-121750000D01*
X158590000Y-121750000D01*
G37*
D16*
X158890000Y-121937500D03*
D10*
G36*
X159090000Y-122275000D02*
X158690000Y-122275000D01*
X158690000Y-121850000D01*
X158940000Y-121600000D01*
X159090000Y-121600000D01*
X159090000Y-122275000D01*
X159090000Y-122275000D01*
G37*
D18*
X159390000Y-121937500D03*
D16*
X159890000Y-121937500D03*
D10*
G36*
X160090000Y-121850000D02*
X160090000Y-122275000D01*
X159690000Y-122275000D01*
X159690000Y-121600000D01*
X159840000Y-121600000D01*
X160090000Y-121850000D01*
X160090000Y-121850000D01*
G37*
D16*
X160527500Y-121800000D03*
D10*
G36*
X160865000Y-122000000D02*
X160440000Y-122000000D01*
X160190000Y-121750000D01*
X160190000Y-121600000D01*
X160865000Y-121600000D01*
X160865000Y-122000000D01*
X160865000Y-122000000D01*
G37*
D17*
X160527500Y-121300000D03*
X160527500Y-120800000D03*
D16*
X160527500Y-120300000D03*
D10*
G36*
X160865000Y-120500000D02*
X160190000Y-120500000D01*
X160190000Y-120350000D01*
X160440000Y-120100000D01*
X160865000Y-120100000D01*
X160865000Y-120500000D01*
X160865000Y-120500000D01*
G37*
D16*
X159890000Y-120162500D03*
D10*
G36*
X160090000Y-120250000D02*
X159840000Y-120500000D01*
X159690000Y-120500000D01*
X159690000Y-119825000D01*
X160090000Y-119825000D01*
X160090000Y-120250000D01*
X160090000Y-120250000D01*
G37*
D18*
X159390000Y-120162500D03*
D16*
X158890000Y-120162500D03*
D10*
G36*
X159090000Y-120500000D02*
X158940000Y-120500000D01*
X158690000Y-120250000D01*
X158690000Y-119825000D01*
X159090000Y-119825000D01*
X159090000Y-120500000D01*
X159090000Y-120500000D01*
G37*
G04 #@! TD*
G04 #@! TO.C,C17*
G36*
X163797642Y-125661174D02*
X163821303Y-125664684D01*
X163844507Y-125670496D01*
X163867029Y-125678554D01*
X163888653Y-125688782D01*
X163909170Y-125701079D01*
X163928383Y-125715329D01*
X163946107Y-125731393D01*
X163962171Y-125749117D01*
X163976421Y-125768330D01*
X163988718Y-125788847D01*
X163998946Y-125810471D01*
X164007004Y-125832993D01*
X164012816Y-125856197D01*
X164016326Y-125879858D01*
X164017500Y-125903750D01*
X164017500Y-126816250D01*
X164016326Y-126840142D01*
X164012816Y-126863803D01*
X164007004Y-126887007D01*
X163998946Y-126909529D01*
X163988718Y-126931153D01*
X163976421Y-126951670D01*
X163962171Y-126970883D01*
X163946107Y-126988607D01*
X163928383Y-127004671D01*
X163909170Y-127018921D01*
X163888653Y-127031218D01*
X163867029Y-127041446D01*
X163844507Y-127049504D01*
X163821303Y-127055316D01*
X163797642Y-127058826D01*
X163773750Y-127060000D01*
X163286250Y-127060000D01*
X163262358Y-127058826D01*
X163238697Y-127055316D01*
X163215493Y-127049504D01*
X163192971Y-127041446D01*
X163171347Y-127031218D01*
X163150830Y-127018921D01*
X163131617Y-127004671D01*
X163113893Y-126988607D01*
X163097829Y-126970883D01*
X163083579Y-126951670D01*
X163071282Y-126931153D01*
X163061054Y-126909529D01*
X163052996Y-126887007D01*
X163047184Y-126863803D01*
X163043674Y-126840142D01*
X163042500Y-126816250D01*
X163042500Y-125903750D01*
X163043674Y-125879858D01*
X163047184Y-125856197D01*
X163052996Y-125832993D01*
X163061054Y-125810471D01*
X163071282Y-125788847D01*
X163083579Y-125768330D01*
X163097829Y-125749117D01*
X163113893Y-125731393D01*
X163131617Y-125715329D01*
X163150830Y-125701079D01*
X163171347Y-125688782D01*
X163192971Y-125678554D01*
X163215493Y-125670496D01*
X163238697Y-125664684D01*
X163262358Y-125661174D01*
X163286250Y-125660000D01*
X163773750Y-125660000D01*
X163797642Y-125661174D01*
X163797642Y-125661174D01*
G37*
D11*
X163530000Y-126360000D03*
D10*
G36*
X161922642Y-125661174D02*
X161946303Y-125664684D01*
X161969507Y-125670496D01*
X161992029Y-125678554D01*
X162013653Y-125688782D01*
X162034170Y-125701079D01*
X162053383Y-125715329D01*
X162071107Y-125731393D01*
X162087171Y-125749117D01*
X162101421Y-125768330D01*
X162113718Y-125788847D01*
X162123946Y-125810471D01*
X162132004Y-125832993D01*
X162137816Y-125856197D01*
X162141326Y-125879858D01*
X162142500Y-125903750D01*
X162142500Y-126816250D01*
X162141326Y-126840142D01*
X162137816Y-126863803D01*
X162132004Y-126887007D01*
X162123946Y-126909529D01*
X162113718Y-126931153D01*
X162101421Y-126951670D01*
X162087171Y-126970883D01*
X162071107Y-126988607D01*
X162053383Y-127004671D01*
X162034170Y-127018921D01*
X162013653Y-127031218D01*
X161992029Y-127041446D01*
X161969507Y-127049504D01*
X161946303Y-127055316D01*
X161922642Y-127058826D01*
X161898750Y-127060000D01*
X161411250Y-127060000D01*
X161387358Y-127058826D01*
X161363697Y-127055316D01*
X161340493Y-127049504D01*
X161317971Y-127041446D01*
X161296347Y-127031218D01*
X161275830Y-127018921D01*
X161256617Y-127004671D01*
X161238893Y-126988607D01*
X161222829Y-126970883D01*
X161208579Y-126951670D01*
X161196282Y-126931153D01*
X161186054Y-126909529D01*
X161177996Y-126887007D01*
X161172184Y-126863803D01*
X161168674Y-126840142D01*
X161167500Y-126816250D01*
X161167500Y-125903750D01*
X161168674Y-125879858D01*
X161172184Y-125856197D01*
X161177996Y-125832993D01*
X161186054Y-125810471D01*
X161196282Y-125788847D01*
X161208579Y-125768330D01*
X161222829Y-125749117D01*
X161238893Y-125731393D01*
X161256617Y-125715329D01*
X161275830Y-125701079D01*
X161296347Y-125688782D01*
X161317971Y-125678554D01*
X161340493Y-125670496D01*
X161363697Y-125664684D01*
X161387358Y-125661174D01*
X161411250Y-125660000D01*
X161898750Y-125660000D01*
X161922642Y-125661174D01*
X161922642Y-125661174D01*
G37*
D11*
X161655000Y-126360000D03*
G04 #@! TD*
D19*
G04 #@! TO.C,U4*
X157975000Y-125590000D03*
X158625000Y-125590000D03*
X159275000Y-125590000D03*
X159925000Y-125590000D03*
X159925000Y-127190000D03*
X159275000Y-127190000D03*
X158625000Y-127190000D03*
X157975000Y-127190000D03*
G04 #@! TD*
D20*
G04 #@! TO.C,D4*
X164940000Y-94742000D03*
X164940000Y-92242000D03*
G04 #@! TD*
D21*
G04 #@! TO.C,J2*
X162500000Y-135970000D03*
X158600000Y-135970000D03*
X162500000Y-134700000D03*
X158600000Y-134700000D03*
X162500000Y-133430000D03*
X158600000Y-133430000D03*
X162500000Y-132160000D03*
X158600000Y-132160000D03*
X162500000Y-130890000D03*
X158600000Y-130890000D03*
G04 #@! TD*
D10*
G04 #@! TO.C,R5*
G36*
X158365191Y-128546053D02*
X158386426Y-128549203D01*
X158407250Y-128554419D01*
X158427462Y-128561651D01*
X158446868Y-128570830D01*
X158465281Y-128581866D01*
X158482524Y-128594654D01*
X158498430Y-128609070D01*
X158512846Y-128624976D01*
X158525634Y-128642219D01*
X158536670Y-128660632D01*
X158545849Y-128680038D01*
X158553081Y-128700250D01*
X158558297Y-128721074D01*
X158561447Y-128742309D01*
X158562500Y-128763750D01*
X158562500Y-129276250D01*
X158561447Y-129297691D01*
X158558297Y-129318926D01*
X158553081Y-129339750D01*
X158545849Y-129359962D01*
X158536670Y-129379368D01*
X158525634Y-129397781D01*
X158512846Y-129415024D01*
X158498430Y-129430930D01*
X158482524Y-129445346D01*
X158465281Y-129458134D01*
X158446868Y-129469170D01*
X158427462Y-129478349D01*
X158407250Y-129485581D01*
X158386426Y-129490797D01*
X158365191Y-129493947D01*
X158343750Y-129495000D01*
X157906250Y-129495000D01*
X157884809Y-129493947D01*
X157863574Y-129490797D01*
X157842750Y-129485581D01*
X157822538Y-129478349D01*
X157803132Y-129469170D01*
X157784719Y-129458134D01*
X157767476Y-129445346D01*
X157751570Y-129430930D01*
X157737154Y-129415024D01*
X157724366Y-129397781D01*
X157713330Y-129379368D01*
X157704151Y-129359962D01*
X157696919Y-129339750D01*
X157691703Y-129318926D01*
X157688553Y-129297691D01*
X157687500Y-129276250D01*
X157687500Y-128763750D01*
X157688553Y-128742309D01*
X157691703Y-128721074D01*
X157696919Y-128700250D01*
X157704151Y-128680038D01*
X157713330Y-128660632D01*
X157724366Y-128642219D01*
X157737154Y-128624976D01*
X157751570Y-128609070D01*
X157767476Y-128594654D01*
X157784719Y-128581866D01*
X157803132Y-128570830D01*
X157822538Y-128561651D01*
X157842750Y-128554419D01*
X157863574Y-128549203D01*
X157884809Y-128546053D01*
X157906250Y-128545000D01*
X158343750Y-128545000D01*
X158365191Y-128546053D01*
X158365191Y-128546053D01*
G37*
D14*
X158125000Y-129020000D03*
D10*
G36*
X159940191Y-128546053D02*
X159961426Y-128549203D01*
X159982250Y-128554419D01*
X160002462Y-128561651D01*
X160021868Y-128570830D01*
X160040281Y-128581866D01*
X160057524Y-128594654D01*
X160073430Y-128609070D01*
X160087846Y-128624976D01*
X160100634Y-128642219D01*
X160111670Y-128660632D01*
X160120849Y-128680038D01*
X160128081Y-128700250D01*
X160133297Y-128721074D01*
X160136447Y-128742309D01*
X160137500Y-128763750D01*
X160137500Y-129276250D01*
X160136447Y-129297691D01*
X160133297Y-129318926D01*
X160128081Y-129339750D01*
X160120849Y-129359962D01*
X160111670Y-129379368D01*
X160100634Y-129397781D01*
X160087846Y-129415024D01*
X160073430Y-129430930D01*
X160057524Y-129445346D01*
X160040281Y-129458134D01*
X160021868Y-129469170D01*
X160002462Y-129478349D01*
X159982250Y-129485581D01*
X159961426Y-129490797D01*
X159940191Y-129493947D01*
X159918750Y-129495000D01*
X159481250Y-129495000D01*
X159459809Y-129493947D01*
X159438574Y-129490797D01*
X159417750Y-129485581D01*
X159397538Y-129478349D01*
X159378132Y-129469170D01*
X159359719Y-129458134D01*
X159342476Y-129445346D01*
X159326570Y-129430930D01*
X159312154Y-129415024D01*
X159299366Y-129397781D01*
X159288330Y-129379368D01*
X159279151Y-129359962D01*
X159271919Y-129339750D01*
X159266703Y-129318926D01*
X159263553Y-129297691D01*
X159262500Y-129276250D01*
X159262500Y-128763750D01*
X159263553Y-128742309D01*
X159266703Y-128721074D01*
X159271919Y-128700250D01*
X159279151Y-128680038D01*
X159288330Y-128660632D01*
X159299366Y-128642219D01*
X159312154Y-128624976D01*
X159326570Y-128609070D01*
X159342476Y-128594654D01*
X159359719Y-128581866D01*
X159378132Y-128570830D01*
X159397538Y-128561651D01*
X159417750Y-128554419D01*
X159438574Y-128549203D01*
X159459809Y-128546053D01*
X159481250Y-128545000D01*
X159918750Y-128545000D01*
X159940191Y-128546053D01*
X159940191Y-128546053D01*
G37*
D14*
X159700000Y-129020000D03*
G04 #@! TD*
D22*
G04 #@! TO.C,U2*
X171290000Y-136855000D03*
X170790000Y-136855000D03*
X170290000Y-136855000D03*
X169790000Y-136855000D03*
X169290000Y-136855000D03*
X168790000Y-136855000D03*
X171790000Y-136855000D03*
X172290000Y-136855000D03*
X172790000Y-136855000D03*
X173290000Y-136855000D03*
X173790000Y-136855000D03*
X174290000Y-136855000D03*
D23*
X175415000Y-133230000D03*
X175415000Y-133730000D03*
X175415000Y-134230000D03*
X175415000Y-134730000D03*
X175415000Y-135230000D03*
X175415000Y-135730000D03*
X175415000Y-132730000D03*
X175415000Y-132230000D03*
X175415000Y-131730000D03*
X175415000Y-131230000D03*
X175415000Y-130730000D03*
X175415000Y-130230000D03*
D22*
X174290000Y-129105000D03*
X173790000Y-129105000D03*
X173290000Y-129105000D03*
X172790000Y-129105000D03*
X172290000Y-129105000D03*
X171790000Y-129105000D03*
X171290000Y-129105000D03*
X170790000Y-129105000D03*
X170290000Y-129105000D03*
X169790000Y-129105000D03*
X169290000Y-129105000D03*
X168790000Y-129105000D03*
D23*
X167665000Y-130230000D03*
X167665000Y-130730000D03*
X167665000Y-131230000D03*
X167665000Y-131730000D03*
X167665000Y-132230000D03*
X167665000Y-132730000D03*
X167665000Y-133230000D03*
X167665000Y-133730000D03*
X167665000Y-134230000D03*
X167665000Y-134730000D03*
X167665000Y-135230000D03*
X167665000Y-135730000D03*
G04 #@! TD*
D24*
G04 #@! TO.C,SW3*
X179046000Y-137002000D03*
X179046000Y-129602000D03*
G04 #@! TD*
D25*
G04 #@! TO.C,Y1*
X164270000Y-138330000D03*
X167070000Y-138330000D03*
G04 #@! TD*
D10*
G04 #@! TO.C,L3*
G36*
X179180642Y-138239174D02*
X179204303Y-138242684D01*
X179227507Y-138248496D01*
X179250029Y-138256554D01*
X179271653Y-138266782D01*
X179292170Y-138279079D01*
X179311383Y-138293329D01*
X179329107Y-138309393D01*
X179345171Y-138327117D01*
X179359421Y-138346330D01*
X179371718Y-138366847D01*
X179381946Y-138388471D01*
X179390004Y-138410993D01*
X179395816Y-138434197D01*
X179399326Y-138457858D01*
X179400500Y-138481750D01*
X179400500Y-139394250D01*
X179399326Y-139418142D01*
X179395816Y-139441803D01*
X179390004Y-139465007D01*
X179381946Y-139487529D01*
X179371718Y-139509153D01*
X179359421Y-139529670D01*
X179345171Y-139548883D01*
X179329107Y-139566607D01*
X179311383Y-139582671D01*
X179292170Y-139596921D01*
X179271653Y-139609218D01*
X179250029Y-139619446D01*
X179227507Y-139627504D01*
X179204303Y-139633316D01*
X179180642Y-139636826D01*
X179156750Y-139638000D01*
X178669250Y-139638000D01*
X178645358Y-139636826D01*
X178621697Y-139633316D01*
X178598493Y-139627504D01*
X178575971Y-139619446D01*
X178554347Y-139609218D01*
X178533830Y-139596921D01*
X178514617Y-139582671D01*
X178496893Y-139566607D01*
X178480829Y-139548883D01*
X178466579Y-139529670D01*
X178454282Y-139509153D01*
X178444054Y-139487529D01*
X178435996Y-139465007D01*
X178430184Y-139441803D01*
X178426674Y-139418142D01*
X178425500Y-139394250D01*
X178425500Y-138481750D01*
X178426674Y-138457858D01*
X178430184Y-138434197D01*
X178435996Y-138410993D01*
X178444054Y-138388471D01*
X178454282Y-138366847D01*
X178466579Y-138346330D01*
X178480829Y-138327117D01*
X178496893Y-138309393D01*
X178514617Y-138293329D01*
X178533830Y-138279079D01*
X178554347Y-138266782D01*
X178575971Y-138256554D01*
X178598493Y-138248496D01*
X178621697Y-138242684D01*
X178645358Y-138239174D01*
X178669250Y-138238000D01*
X179156750Y-138238000D01*
X179180642Y-138239174D01*
X179180642Y-138239174D01*
G37*
D11*
X178913000Y-138938000D03*
D10*
G36*
X177305642Y-138239174D02*
X177329303Y-138242684D01*
X177352507Y-138248496D01*
X177375029Y-138256554D01*
X177396653Y-138266782D01*
X177417170Y-138279079D01*
X177436383Y-138293329D01*
X177454107Y-138309393D01*
X177470171Y-138327117D01*
X177484421Y-138346330D01*
X177496718Y-138366847D01*
X177506946Y-138388471D01*
X177515004Y-138410993D01*
X177520816Y-138434197D01*
X177524326Y-138457858D01*
X177525500Y-138481750D01*
X177525500Y-139394250D01*
X177524326Y-139418142D01*
X177520816Y-139441803D01*
X177515004Y-139465007D01*
X177506946Y-139487529D01*
X177496718Y-139509153D01*
X177484421Y-139529670D01*
X177470171Y-139548883D01*
X177454107Y-139566607D01*
X177436383Y-139582671D01*
X177417170Y-139596921D01*
X177396653Y-139609218D01*
X177375029Y-139619446D01*
X177352507Y-139627504D01*
X177329303Y-139633316D01*
X177305642Y-139636826D01*
X177281750Y-139638000D01*
X176794250Y-139638000D01*
X176770358Y-139636826D01*
X176746697Y-139633316D01*
X176723493Y-139627504D01*
X176700971Y-139619446D01*
X176679347Y-139609218D01*
X176658830Y-139596921D01*
X176639617Y-139582671D01*
X176621893Y-139566607D01*
X176605829Y-139548883D01*
X176591579Y-139529670D01*
X176579282Y-139509153D01*
X176569054Y-139487529D01*
X176560996Y-139465007D01*
X176555184Y-139441803D01*
X176551674Y-139418142D01*
X176550500Y-139394250D01*
X176550500Y-138481750D01*
X176551674Y-138457858D01*
X176555184Y-138434197D01*
X176560996Y-138410993D01*
X176569054Y-138388471D01*
X176579282Y-138366847D01*
X176591579Y-138346330D01*
X176605829Y-138327117D01*
X176621893Y-138309393D01*
X176639617Y-138293329D01*
X176658830Y-138279079D01*
X176679347Y-138266782D01*
X176700971Y-138256554D01*
X176723493Y-138248496D01*
X176746697Y-138242684D01*
X176770358Y-138239174D01*
X176794250Y-138238000D01*
X177281750Y-138238000D01*
X177305642Y-138239174D01*
X177305642Y-138239174D01*
G37*
D11*
X177038000Y-138938000D03*
G04 #@! TD*
M02*
